<?xml version="1.0" encoding="UTF-8" standalone="no"?>
<!-- Created with Inkscape (http://www.inkscape.org/) -->

<svg
   xmlns:dc="http://purl.org/dc/elements/1.1/"
   xmlns:cc="http://creativecommons.org/ns#"
   xmlns:rdf="http://www.w3.org/1999/02/22-rdf-syntax-ns#"
   xmlns:svg="http://www.w3.org/2000/svg"
   xmlns="http://www.w3.org/2000/svg"
   xmlns:sodipodi="http://sodipodi.sourceforge.net/DTD/sodipodi-0.dtd"
   xmlns:inkscape="http://www.inkscape.org/namespaces/inkscape"
   id="svg2985"
   version="1.1"
   inkscape:version="0.48.5 r10040"
   width="2050"
   height="1037.5"
   xml:space="preserve"
   sodipodi:docname="Madrid vs Barcelona banner.svg"><metadata
     id="metadata2991"><rdf:RDF><cc:Work
         rdf:about=""><dc:format>image/svg+xml</dc:format><dc:type
           rdf:resource="http://purl.org/dc/dcmitype/StillImage" /><dc:title></dc:title></cc:Work></rdf:RDF></metadata><defs
     id="defs2989"><clipPath
       id="clipPath15902"
       clipPathUnits="userSpaceOnUse"><path
         id="path15904"
         d="M 0,800 800,800 800,0 0,0 0,800 z" /></clipPath><clipPath
       id="clipPath14934"
       clipPathUnits="userSpaceOnUse"><path
         id="path14936"
         d="m 332.194,475.769 169.175,0 -84.588,43.657 -84.587,-43.657 z" /></clipPath><clipPath
       id="clipPath14916"
       clipPathUnits="userSpaceOnUse"><path
         id="path14918"
         d="m 440.626,341.02 33.656,0 0,-2.953 -33.656,0 0,2.953 z" /></clipPath><clipPath
       id="clipPath14898"
       clipPathUnits="userSpaceOnUse"><path
         id="path14900"
         d="m 446.686,365.214 21.537,0 0,-21.338 -21.537,0 0,21.338 z" /></clipPath><clipPath
       id="clipPath14882"
       clipPathUnits="userSpaceOnUse"><path
         id="path14884"
         d="m 446.686,372.665 21.537,0 0,-21.337 -21.537,0 0,21.337 z" /></clipPath><clipPath
       id="clipPath14864"
       clipPathUnits="userSpaceOnUse"><path
         id="path14866"
         d="m 355.899,341.02 33.657,0 0,-2.953 -33.657,0 0,2.953 z" /></clipPath><clipPath
       id="clipPath14846"
       clipPathUnits="userSpaceOnUse"><path
         id="path14848"
         d="m 361.959,365.214 21.537,0 0,-21.338 -21.537,0 0,21.338 z" /></clipPath><clipPath
       id="clipPath14830"
       clipPathUnits="userSpaceOnUse"><path
         id="path14832"
         d="m 361.959,372.665 21.537,0 0,-21.337 -21.537,0 0,21.337 z" /></clipPath><clipPath
       id="clipPath14812"
       clipPathUnits="userSpaceOnUse"><path
         id="path14814"
         d="m 440.626,385.368 33.656,0 0,-2.951 -33.656,0 0,2.951 z" /></clipPath><clipPath
       id="clipPath14794"
       clipPathUnits="userSpaceOnUse"><path
         id="path14796"
         d="m 446.686,409.563 21.537,0 0,-21.338 -21.537,0 0,21.338 z" /></clipPath><clipPath
       id="clipPath14778"
       clipPathUnits="userSpaceOnUse"><path
         id="path14780"
         d="m 446.686,417.014 21.537,0 0,-21.337 -21.537,0 0,21.337 z" /></clipPath><clipPath
       id="clipPath14760"
       clipPathUnits="userSpaceOnUse"><path
         id="path14762"
         d="m 398.263,385.368 33.656,0 0,-2.951 -33.656,0 0,2.951 z" /></clipPath><clipPath
       id="clipPath14742"
       clipPathUnits="userSpaceOnUse"><path
         id="path14744"
         d="m 404.322,409.563 21.537,0 0,-21.338 -21.537,0 0,21.338 z" /></clipPath><clipPath
       id="clipPath14726"
       clipPathUnits="userSpaceOnUse"><path
         id="path14728"
         d="m 404.322,417.014 21.537,0 0,-21.337 -21.537,0 0,21.337 z" /></clipPath><clipPath
       id="clipPath14708"
       clipPathUnits="userSpaceOnUse"><path
         id="path14710"
         d="m 355.899,385.368 33.657,0 0,-2.951 -33.657,0 0,2.951 z" /></clipPath><clipPath
       id="clipPath14690"
       clipPathUnits="userSpaceOnUse"><path
         id="path14692"
         d="m 361.959,409.563 21.537,0 0,-21.338 -21.537,0 0,21.338 z" /></clipPath><clipPath
       id="clipPath14674"
       clipPathUnits="userSpaceOnUse"><path
         id="path14676"
         d="m 361.959,417.014 21.537,0 0,-21.337 -21.537,0 0,21.337 z" /></clipPath><clipPath
       id="clipPath14656"
       clipPathUnits="userSpaceOnUse"><path
         id="path14658"
         d="m 440.626,429.717 33.656,0 0,-2.951 -33.656,0 0,2.951 z" /></clipPath><clipPath
       id="clipPath14638"
       clipPathUnits="userSpaceOnUse"><path
         id="path14640"
         d="m 446.686,453.912 21.537,0 0,-21.338 -21.537,0 0,21.338 z" /></clipPath><clipPath
       id="clipPath14622"
       clipPathUnits="userSpaceOnUse"><path
         id="path14624"
         d="m 446.686,461.363 21.537,0 0,-21.337 -21.537,0 0,21.337 z" /></clipPath><clipPath
       id="clipPath14604"
       clipPathUnits="userSpaceOnUse"><path
         id="path14606"
         d="m 398.263,429.717 33.656,0 0,-2.951 -33.656,0 0,2.951 z" /></clipPath><clipPath
       id="clipPath14586"
       clipPathUnits="userSpaceOnUse"><path
         id="path14588"
         d="m 404.322,453.912 21.537,0 0,-21.338 -21.537,0 0,21.338 z" /></clipPath><clipPath
       id="clipPath14570"
       clipPathUnits="userSpaceOnUse"><path
         id="path14572"
         d="m 404.322,461.363 21.537,0 0,-21.337 -21.537,0 0,21.337 z" /></clipPath><clipPath
       id="clipPath14552"
       clipPathUnits="userSpaceOnUse"><path
         id="path14554"
         d="m 355.899,429.717 33.657,0 0,-2.951 -33.657,0 0,2.951 z" /></clipPath><clipPath
       id="clipPath14534"
       clipPathUnits="userSpaceOnUse"><path
         id="path14536"
         d="m 361.959,453.912 21.537,0 0,-21.338 -21.537,0 0,21.338 z" /></clipPath><clipPath
       id="clipPath14518"
       clipPathUnits="userSpaceOnUse"><path
         id="path14520"
         d="m 361.959,461.363 21.537,0 0,-21.337 -21.537,0 0,21.337 z" /></clipPath><clipPath
       id="clipPath14494"
       clipPathUnits="userSpaceOnUse"><path
         id="path14496"
         d="m 407.908,347.56 14.427,0 0,-17.945 -14.427,0 0,17.945 z" /></clipPath><clipPath
       id="clipPath14478"
       clipPathUnits="userSpaceOnUse"><path
         id="path14480"
         d="m 407.908,373.565 14.427,0 0,-17.945 -14.427,0 0,17.945 z" /></clipPath><clipPath
       id="clipPath14434"
       clipPathUnits="userSpaceOnUse"><path
         id="path14436"
         d="m 209.436,132.611 22.934,0 0,-22.723 -22.934,0 0,22.723 z" /></clipPath><clipPath
       id="clipPath14418"
       clipPathUnits="userSpaceOnUse"><path
         id="path14420"
         d="m 209.436,140.544 22.934,0 0,-22.721 -22.934,0 0,22.721 z" /></clipPath><clipPath
       id="clipPath14396"
       clipPathUnits="userSpaceOnUse"><path
         id="path14398"
         d="m 209.436,192.808 22.934,0 0,-22.723 -22.934,0 0,22.723 z" /></clipPath><clipPath
       id="clipPath14380"
       clipPathUnits="userSpaceOnUse"><path
         id="path14382"
         d="m 209.436,200.741 22.934,0 0,-22.72 -22.934,0 0,22.72 z" /></clipPath><clipPath
       id="clipPath14358"
       clipPathUnits="userSpaceOnUse"><path
         id="path14360"
         d="m 85.1704,132.611 22.9336,0 0,-22.723 -22.9336,0 0,22.723 z" /></clipPath><clipPath
       id="clipPath14342"
       clipPathUnits="userSpaceOnUse"><path
         id="path14344"
         d="m 85.1704,140.544 22.9336,0 0,-22.721 -22.9336,0 0,22.721 z" /></clipPath><clipPath
       id="clipPath14320"
       clipPathUnits="userSpaceOnUse"><path
         id="path14322"
         d="m 85.1704,192.808 22.9336,0 0,-22.723 -22.9336,0 0,22.723 z" /></clipPath><clipPath
       id="clipPath14304"
       clipPathUnits="userSpaceOnUse"><path
         id="path14306"
         d="m 85.1704,200.741 22.9336,0 0,-22.72 -22.9336,0 0,22.72 z" /></clipPath><clipPath
       id="clipPath14282"
       clipPathUnits="userSpaceOnUse"><path
         id="path14284"
         d="m 147.522,203.288 22.934,0 0,-22.724 -22.934,0 0,22.724 z" /></clipPath><clipPath
       id="clipPath14266"
       clipPathUnits="userSpaceOnUse"><path
         id="path14268"
         d="m 147.522,211.224 22.934,0 0,-22.724 -22.934,0 0,22.724 z" /></clipPath><clipPath
       id="clipPath14202"
       clipPathUnits="userSpaceOnUse"><path
         id="path14204"
         d="m 153.015,460.881 26.863,0 0,-26.615 -26.863,0 0,26.615 z" /></clipPath><clipPath
       id="clipPath14186"
       clipPathUnits="userSpaceOnUse"><path
         id="path14188"
         d="m 153.015,470.175 26.863,0 0,-26.614 -26.863,0 0,26.614 z" /></clipPath><clipPath
       id="clipPath14166"
       clipPathUnits="userSpaceOnUse"><path
         id="path14168"
         d="m 183.441,460.881 26.864,0 0,-26.615 -26.864,0 0,26.615 z" /></clipPath><clipPath
       id="clipPath14150"
       clipPathUnits="userSpaceOnUse"><path
         id="path14152"
         d="m 183.441,470.175 26.864,0 0,-26.614 -26.864,0 0,26.614 z" /></clipPath><clipPath
       id="clipPath14128"
       clipPathUnits="userSpaceOnUse"><path
         id="path14130"
         d="m 74.084,460.881 26.863,0 0,-26.615 -26.863,0 0,26.615 z" /></clipPath><clipPath
       id="clipPath14112"
       clipPathUnits="userSpaceOnUse"><path
         id="path14114"
         d="m 74.084,470.175 26.863,0 0,-26.614 -26.863,0 0,26.614 z" /></clipPath><clipPath
       id="clipPath14092"
       clipPathUnits="userSpaceOnUse"><path
         id="path14094"
         d="m 104.51,460.881 26.864,0 0,-26.615 -26.864,0 0,26.615 z" /></clipPath><clipPath
       id="clipPath14076"
       clipPathUnits="userSpaceOnUse"><path
         id="path14078"
         d="m 104.51,470.175 26.864,0 0,-26.614 -26.864,0 0,26.614 z" /></clipPath><clipPath
       id="clipPath14054"
       clipPathUnits="userSpaceOnUse"><path
         id="path14056"
         d="m 183.441,392.231 26.864,0 0,-26.615 -26.864,0 0,26.615 z" /></clipPath><clipPath
       id="clipPath14038"
       clipPathUnits="userSpaceOnUse"><path
         id="path14040"
         d="m 183.441,401.525 26.864,0 0,-26.614 -26.864,0 0,26.614 z" /></clipPath><clipPath
       id="clipPath14016"
       clipPathUnits="userSpaceOnUse"><path
         id="path14018"
         d="m 74.8853,392.231 26.8637,0 0,-26.615 -26.8637,0 0,26.615 z" /></clipPath><clipPath
       id="clipPath14000"
       clipPathUnits="userSpaceOnUse"><path
         id="path14002"
         d="m 74.8853,401.525 26.8637,0 0,-26.614 -26.8637,0 0,26.614 z" /></clipPath><clipPath
       id="clipPath13930"
       clipPathUnits="userSpaceOnUse"><path
         id="path13932"
         d="m 448.79,131.765 26.863,0 0,-26.616 -26.863,0 0,26.616 z" /></clipPath><clipPath
       id="clipPath13914"
       clipPathUnits="userSpaceOnUse"><path
         id="path13916"
         d="m 448.79,141.058 26.863,0 0,-26.615 -26.863,0 0,26.615 z" /></clipPath><clipPath
       id="clipPath13892"
       clipPathUnits="userSpaceOnUse"><path
         id="path13894"
         d="m 357.888,131.765 26.864,0 0,-26.616 -26.864,0 0,26.616 z" /></clipPath><clipPath
       id="clipPath13876"
       clipPathUnits="userSpaceOnUse"><path
         id="path13878"
         d="m 357.888,141.058 26.864,0 0,-26.615 -26.864,0 0,26.615 z" /></clipPath><clipPath
       id="clipPath13832"
       clipPathUnits="userSpaceOnUse"><path
         id="path13834"
         d="m 405.709,108.022 22.178,0 0,-27.5904 -22.178,0 0,27.5904 z" /></clipPath><clipPath
       id="clipPath13816"
       clipPathUnits="userSpaceOnUse"><path
         id="path13818"
         d="m 405.709,148.007 22.178,0 0,-27.592 -22.178,0 0,27.592 z" /></clipPath><clipPath
       id="clipPath13786"
       clipPathUnits="userSpaceOnUse"><path
         id="path13788"
         d="m 341.8,247.348 149.941,0 0,-81.856 -149.941,0 0,81.856 z" /></clipPath><clipPath
       id="clipPath13776"
       clipPathUnits="userSpaceOnUse"><path
         id="path13778"
         d="M 0,800 800,800 800,0 0,0 0,800 z" /></clipPath><clipPath
       id="clipPath13684"
       clipPathUnits="userSpaceOnUse"><path
         id="path13686"
         d="m 341.8,174.01 0,-99.762 149.941,0 0,99.762 -74.971,73.338 -74.97,-73.338 z" /></clipPath><clipPath
       id="clipPath13498"
       clipPathUnits="userSpaceOnUse"><path
         id="path13500"
         d="m 622.105,361.825 22.178,0 0,-27.591 -22.178,0 0,27.591 z" /></clipPath><clipPath
       id="clipPath13482"
       clipPathUnits="userSpaceOnUse"><path
         id="path13484"
         d="m 622.105,401.81 22.178,0 0,-27.592 -22.178,0 0,27.592 z" /></clipPath><clipPath
       id="clipPath13458"
       clipPathUnits="userSpaceOnUse"><path
         id="path13460"
         d="m 663.867,385.566 26.863,0 0,-26.615 -26.863,0 0,26.615 z" /></clipPath><clipPath
       id="clipPath13442"
       clipPathUnits="userSpaceOnUse"><path
         id="path13444"
         d="m 663.867,394.86 26.863,0 0,-26.614 -26.863,0 0,26.614 z" /></clipPath><clipPath
       id="clipPath13422"
       clipPathUnits="userSpaceOnUse"><path
         id="path13424"
         d="m 694.294,385.566 26.863,0 0,-26.615 -26.863,0 0,26.615 z" /></clipPath><clipPath
       id="clipPath13406"
       clipPathUnits="userSpaceOnUse"><path
         id="path13408"
         d="m 694.294,394.86 26.863,0 0,-26.614 -26.863,0 0,26.614 z" /></clipPath><clipPath
       id="clipPath13380"
       clipPathUnits="userSpaceOnUse"><path
         id="path13382"
         d="m 589.649,501.15 149.941,0 0,-81.856 -149.941,0 0,81.856 z" /></clipPath><clipPath
       id="clipPath13370"
       clipPathUnits="userSpaceOnUse"><path
         id="path13372"
         d="M 0,800 800,800 800,0 0,0 0,800 z" /></clipPath><clipPath
       id="clipPath13278"
       clipPathUnits="userSpaceOnUse"><path
         id="path13280"
         d="m 589.649,427.813 0,-99.762 149.94,0 0,99.762 -74.969,73.338 -74.971,-73.338 z" /></clipPath><clipPath
       id="clipPath13234"
       clipPathUnits="userSpaceOnUse"><path
         id="path13236"
         d="m 204.791,646.108 26.863,0 0,-26.615 -26.863,0 0,26.615 z" /></clipPath><clipPath
       id="clipPath13218"
       clipPathUnits="userSpaceOnUse"><path
         id="path13220"
         d="m 204.791,655.402 26.863,0 0,-26.614 -26.863,0 0,26.614 z" /></clipPath><clipPath
       id="clipPath13198"
       clipPathUnits="userSpaceOnUse"><path
         id="path13200"
         d="m 235.217,646.108 26.864,0 0,-26.615 -26.864,0 0,26.615 z" /></clipPath><clipPath
       id="clipPath13182"
       clipPathUnits="userSpaceOnUse"><path
         id="path13184"
         d="m 235.217,655.402 26.864,0 0,-26.614 -26.864,0 0,26.614 z" /></clipPath><clipPath
       id="clipPath13122"
       clipPathUnits="userSpaceOnUse"><path
         id="path13124"
         d="m 298.359,635.279 22.935,0 0,-22.723 -22.935,0 0,22.723 z" /></clipPath><clipPath
       id="clipPath13106"
       clipPathUnits="userSpaceOnUse"><path
         id="path13108"
         d="m 298.359,643.213 22.935,0 0,-22.722 -22.935,0 0,22.722 z" /></clipPath><clipPath
       id="clipPath13044"
       clipPathUnits="userSpaceOnUse"><path
         id="path13046"
         d="m 89.7925,635.279 22.9345,0 0,-22.723 -22.9345,0 0,22.723 z" /></clipPath><clipPath
       id="clipPath13028"
       clipPathUnits="userSpaceOnUse"><path
         id="path13030"
         d="m 89.7925,643.213 22.9345,0 0,-22.722 -22.9345,0 0,22.722 z" /></clipPath><clipPath
       id="clipPath12964"
       clipPathUnits="userSpaceOnUse"><path
         id="path12966"
         d="m 654.984,198.627 19.272,0 0,-19.092 -19.272,0 0,19.092 z" /></clipPath><clipPath
       id="clipPath12948"
       clipPathUnits="userSpaceOnUse"><path
         id="path12950"
         d="m 654.984,205.294 19.272,0 0,-19.091 -19.272,0 0,19.091 z" /></clipPath><clipPath
       id="clipPath12928"
       clipPathUnits="userSpaceOnUse"><path
         id="path12930"
         d="m 638.509,131.764 26.864,0 0,-26.615 -26.864,0 0,26.615 z" /></clipPath><clipPath
       id="clipPath12912"
       clipPathUnits="userSpaceOnUse"><path
         id="path12914"
         d="m 638.509,141.058 26.864,0 0,-26.616 -26.864,0 0,26.616 z" /></clipPath><clipPath
       id="clipPath12892"
       clipPathUnits="userSpaceOnUse"><path
         id="path12894"
         d="m 608.082,131.764 26.864,0 0,-26.615 -26.864,0 0,26.615 z" /></clipPath><clipPath
       id="clipPath12876"
       clipPathUnits="userSpaceOnUse"><path
         id="path12878"
         d="m 608.082,141.058 26.864,0 0,-26.616 -26.864,0 0,26.616 z" /></clipPath><clipPath
       id="clipPath12802"
       clipPathUnits="userSpaceOnUse"><path
         id="path12804"
         d="m 615.114,644.27 26.864,0 0,-18.588 -26.864,0 0,18.588 z" /></clipPath><clipPath
       id="clipPath12786"
       clipPathUnits="userSpaceOnUse"><path
         id="path12788"
         d="m 615.114,653.563 26.864,0 0,-18.587 -26.864,0 0,18.587 z" /></clipPath><clipPath
       id="clipPath12720"
       clipPathUnits="userSpaceOnUse"><path
         id="path12722"
         d="M 0,800 800,800 800,0 0,0 0,800 z" /></clipPath><radialGradient
       id="radialGradient12564"
       spreadMethod="pad"
       gradientTransform="matrix(563.45984,0,0,-563.45984,400,400)"
       gradientUnits="userSpaceOnUse"
       r="1"
       cy="0"
       cx="0"
       fy="0"
       fx="0"><stop
         id="stop12566"
         offset="0"
         style="stop-opacity:1;stop-color:#ffffff" /><stop
         id="stop12568"
         offset="1"
         style="stop-opacity:1;stop-color:#1d1e1c" /></radialGradient><mask
       id="mask12552"
       height="1"
       width="1"
       y="0"
       x="0"
       maskUnits="userSpaceOnUse"><g
         id="g12554"><g
           id="g12556"><g
             id="g12558"><g
               id="g12560"><path
                 id="path12562"
                 style="fill:url(#radialGradient12546);stroke:none"
                 d="m -32768,32767 65535,0 0,-65535 -65535,0 0,65535 z" /></g></g></g></g></mask><radialGradient
       id="radialGradient12546"
       spreadMethod="pad"
       gradientTransform="matrix(563.45984,0,0,-563.45984,400,400)"
       gradientUnits="userSpaceOnUse"
       r="1"
       cy="0"
       cx="0"
       fy="0"
       fx="0"><stop
         id="stop12548"
         offset="0"
         style="stop-opacity:0;stop-color:#ffffff" /><stop
         id="stop12550"
         offset="1"
         style="stop-opacity:0.29999237;stop-color:#ffffff" /></radialGradient><clipPath
       id="clipPath12538"
       clipPathUnits="userSpaceOnUse"><path
         id="path12540"
         d="M 800,0 0,0 0,800 800,800 800,0 z" /></clipPath><clipPath
       id="clipPath12534"
       clipPathUnits="userSpaceOnUse"><path
         id="path12536"
         d="M -4.88281e-4,800 800,800 800,0 -4.88281e-4,0 l 0,800 z" /></clipPath><clipPath
       id="clipPath12526"
       clipPathUnits="userSpaceOnUse"><path
         id="path12528"
         d="M 0,800 800,800 800,0 0,0 0,800 z" /></clipPath></defs><sodipodi:namedview
     pagecolor="#ffffff"
     bordercolor="#666666"
     borderopacity="1"
     objecttolerance="10"
     gridtolerance="10"
     guidetolerance="10"
     inkscape:pageopacity="0"
     inkscape:pageshadow="2"
     inkscape:window-width="1280"
     inkscape:window-height="697"
     id="namedview2987"
     showgrid="false"
     showguides="true"
     inkscape:guide-bbox="true"
     inkscape:zoom="0.33560976"
     inkscape:cx="951.21014"
     inkscape:cy="547.33039"
     inkscape:window-x="-8"
     inkscape:window-y="-8"
     inkscape:window-maximized="1"
     inkscape:current-layer="g2993" /><g
     id="g2993"
     inkscape:groupmode="layer"
     inkscape:label="ink_ext_XXXXXX"
     transform="matrix(1.25,0,0,-1.25,0,1037.5)">



<g
   id="g6012"
   inkscape:export-filename="C:\Users\danie\Desktop\Workspace\MvsB_banner.png"
   inkscape:export-xdpi="108.87859"
   inkscape:export-ydpi="108.87859"><path
     inkscape:connector-curvature="0"
     id="path2999"
     style="fill:#ffffff;fill-opacity:1;fill-rule:nonzero;stroke:none"
     d="m 1639.5641,214.53488 -1639.99182366,0 0,462.90281 1639.99182366,0 0,-462.90281" /><g
     transform="translate(-9.6,0)"
     id="g5042"><path
       inkscape:connector-curvature="0"
       id="path3057"
       style="fill:#00838f;fill-opacity:1;fill-rule:nonzero;stroke:none"
       d="m 884.73077,467.72903 c -7.87134,13.59954 -22.56791,22.76006 -39.41255,22.76006 -16.84465,0 -31.54121,-9.16052 -39.41092,-22.76006 l 39.41092,-22.75513 39.41255,22.75513" /><path
       inkscape:connector-curvature="0"
       id="path3059"
       style="fill:#ffce00;fill-opacity:1;fill-rule:nonzero;stroke:none"
       d="m 805.9073,467.73232 c -7.84506,-13.61761 -8.42806,-30.92372 0,-45.5119 8.42315,-14.58818 23.70272,-22.73543 39.41584,-22.75185 l 0,45.50862 -39.41091,22.75513" /><path
       inkscape:connector-curvature="0"
       id="path3061"
       style="fill:#c0ca33;fill-opacity:1;fill-rule:nonzero;stroke:none"
       d="m 884.73077,467.73232 c 7.84343,-13.61761 8.42643,-30.92372 0,-45.5119 -8.42314,-14.58818 -23.70271,-22.73543 -39.41748,-22.75185 l 0,45.50862 39.41255,22.75513" /><g
       id="g4776"
       transform="matrix(1.0344672,0,0,1.0472944,-15.848843,28.941143)"><path
         d="m 1013.58,448.759 -72.983,0 c 7.36,-15.533 11.484,-32.899 11.484,-51.23 0,-66.156 -53.631,-119.787 -119.787,-119.787 l 0,0 -252.76,0 -17.763,-33.687 17.763,-34.869 252.76,0 0,0 c 104.019,0 188.346,84.324 188.346,188.343 0,17.759 -2.46,34.941 -7.06,51.23"
         style="fill:#f9a825;fill-opacity:1;fill-rule:nonzero;stroke:none"
         id="path4037"
         inkscape:connector-curvature="0" /><path
         d="m 1045.03,585.874 -212.736,0 0,0 c -104.02,0 -188.344,-84.325 -188.344,-188.345 0,-17.758 2.462,-34.941 7.055,-51.228 l 72.986,0 c -7.36,15.533 -11.484,32.898 -11.484,51.228 0,66.157 53.631,119.787 119.787,119.787 l 212.736,0 17.76,33.687 -17.76,34.871"
         style="fill:#00838f;fill-opacity:1;fill-rule:nonzero;stroke:none"
         id="path4039"
         inkscape:connector-curvature="0" /><path
         d="m 1165.1,517.316 -332.806,0 0,0 c -66.156,0 -119.787,-53.63 -119.787,-119.787 0,-18.33 4.124,-35.695 11.484,-51.228 l 108.3,0 c -28.291,0.002 -51.226,22.935 -51.226,51.228 0,28.293 22.936,51.23 51.229,51.23 l 332.806,0 17.76,33.687 -17.76,34.87"
         style="fill:#7cb342;fill-opacity:1;fill-rule:nonzero;stroke:none"
         id="path4041"
         inkscape:connector-curvature="0" /><path
         d="m 940.597,448.759 -108.303,0 c 28.293,0 51.229,-22.937 51.229,-51.23 0,-28.293 -22.936,-51.228 -51.229,-51.228 l -359.486,0 -17.763,-33.688 17.763,-34.871 359.486,0 0,0 c 66.156,0 119.787,53.631 119.787,119.787 0,18.331 -4.124,35.697 -11.484,51.23"
         style="fill:#c0ca33;fill-opacity:1;fill-rule:nonzero;stroke:none"
         id="path4049"
         inkscape:connector-curvature="0" /></g><g
       id="g4782"
       transform="matrix(1.6422582,0,0,1.6422582,-910.13173,-267.7631)"><g
         id="g20209"><path
           id="path6455"
           style="fill:#00838f;fill-opacity:1;fill-rule:evenodd;stroke:none"
           d="m 1296.42,432.59631 c -0.309,67.53204 54.7063,124.87079 125.1543,124.92045 70.2362,0.0459 127.2511,-57.79131 125.2009,-129.04322 -1.9318,-67.16922 -58.5626,-123.90646 -130.4444,-121.07647 -66.8098,2.62948 -120.3512,58.17704 -119.9108,125.19924"
           inkscape:connector-curvature="0" /><path
           id="path6457"
           style="fill:#fcfdfe;fill-opacity:1;fill-rule:evenodd;stroke:none"
           d="m 1421.1577,312.37342 c -65.3575,-0.68935 -120.8551,52.93336 -120.9536,120.56661 -0.097,66.82932 53.4288,121.32854 121.1634,121.29226 69.3156,-0.0344 121.8575,-56.43744 121.1696,-122.43419 -0.7012,-67.16731 -56.5888,-120.49022 -121.3794,-119.42468"
           inkscape:connector-curvature="0" /><path
           id="path6459"
           style="fill:#00838f;fill-opacity:1;fill-rule:evenodd;stroke:none"
           d="m 1421.5943,551.64291 c 65.1068,0.0955 119.4276,-53.34583 118.413,-120.33938 -0.9784,-64.55883 -53.6158,-116.4935 -118.4957,-116.61952 -65.9427,-0.12604 -119.808,53.5826 -118.7802,120.40429 1.0083,65.50599 54.6819,116.74938 118.8629,116.55461"
           inkscape:connector-curvature="0" /><path
           id="path6461"
           style="fill:#ffffff;fill-opacity:1;fill-rule:evenodd;stroke:none"
           d="m 1340.2165,427.05282 c 0.2248,28.38579 8.2304,47.51781 23.8708,63.20304 15.775,15.82082 35.3237,23.81047 57.543,23.72263 22.7496,-0.0897 42.6425,-8.299 58.5666,-24.87219 15.093,-15.70623 22.8297,-34.6721 22.7858,-56.41833 -0.092,-46.83609 -38.2571,-82.61958 -83.8423,-81.34208 -45.4364,1.27178 -79.9383,39.50525 -78.9239,75.70693"
           inkscape:connector-curvature="0" /><path
           id="path6463"
           style="fill:#fafbfb;fill-opacity:1;fill-rule:evenodd;stroke:none"
           d="m 1462.8186,529.21879 c 0,-5.57595 -4.0966,-9.66816 -9.592,-9.59751 -4.9928,0.0612 -8.5659,3.93563 -8.5315,9.24998 0.035,5.24177 4.3031,9.77319 9.2213,9.7942 5.0023,0.0191 8.9099,-4.1266 8.9022,-9.44667"
           inkscape:connector-curvature="0" /><path
           id="path6465"
           style="fill:#fafbfd;fill-opacity:1;fill-rule:evenodd;stroke:none"
           d="m 1476.1003,516.4953 c 1.5057,2.67915 2.8278,5.03747 4.1578,7.39197 0.5102,0.90322 1.175,1.7969 2.3177,1.25268 1.2573,-0.59961 1.2306,-1.68234 0.577,-2.82044 -2.3387,-4.06358 -4.668,-8.13669 -6.9799,-12.21746 -0.493,-0.87076 -1.1695,-1.26795 -2.1343,-0.9796 -0.8638,0.25588 -0.942,1.00634 -1.0319,1.76827 -0.4604,3.90125 -0.9496,7.79677 -1.4292,11.7095 -1.284,0.28452 -1.3547,-0.87268 -1.7407,-1.48184 -1.1235,-1.77017 -2.0923,-3.63583 -3.1814,-5.42891 -0.5312,-0.88031 -1.2688,-1.68615 -2.3999,-0.99106 -1.0433,0.63969 -0.9382,1.5792 -0.365,2.57218 1.4178,2.46144 2.7879,4.9477 4.1826,7.41869 0.9096,1.61359 1.802,3.23674 2.7592,4.81976 0.4548,0.75238 1.07,1.42646 2.1018,1.11901 0.8446,-0.25206 0.9917,-0.98151 1.0854,-1.75107 0.3993,-3.2921 0.8197,-6.5823 1.242,-9.87058 0.087,-0.69699 -0.02,-1.44364 0.8388,-2.5111"
           inkscape:connector-curvature="0" /><path
           id="path6467"
           style="fill:#fafbfb;fill-opacity:1;fill-rule:evenodd;stroke:none"
           d="m 1361.8178,507.91751 c -0.2001,-2.74979 -1.9952,-4.39202 -3.9887,-5.93878 -3.0089,-2.33922 -3.079,-2.38124 -5.5353,0.6168 -2.5751,3.13743 -5.038,6.36651 -7.6571,9.46575 -1.0973,1.29851 -1.2279,2.32204 0.1491,3.39713 1.0642,0.83257 2.0443,1.81601 3.2102,2.46144 2.2621,1.25841 5.2866,0.68554 6.4711,-1.5964 0.9508,-1.83128 2.1787,-2.56838 3.9985,-3.19281 2.1673,-0.74473 3.4609,-3.13934 3.352,-5.21313"
           inkscape:connector-curvature="0" /><path
           id="path6469"
           style="fill:#f8fafb;fill-opacity:1;fill-rule:evenodd;stroke:none"
           d="m 1450.2153,334.81472 c -0.193,3.0725 -1.4847,5.27233 -1.9317,7.69367 -0.1109,0.5996 -0.3994,1.17629 -0.4376,1.7759 -0.04,0.65689 0.3496,1.20303 0.9764,1.43981 0.8216,0.30936 1.5362,-0.0496 1.8572,-0.76382 0.4548,-1.00635 0.7261,-2.0948 1.0433,-3.16033 0.9898,-3.31503 1.9413,-6.6415 2.9636,-9.94698 0.3,-0.97388 0.7642,-1.98787 -0.2217,-2.71159 -1.1236,-0.82877 -2.0712,-0.0535 -2.9827,0.64544 -2.826,2.16927 -5.673,4.31181 -8.7619,6.65676 -0.4217,-2.64475 1.1304,-4.51805 1.3615,-6.65676 0.092,-0.84596 0.4567,-1.66134 0.5772,-2.50728 0.094,-0.66071 -0.2294,-1.21257 -0.9306,-1.40162 -0.6496,-0.17568 -1.2657,-0.002 -1.6748,0.50604 -0.3015,0.37427 -0.4985,0.86312 -0.6372,1.33288 -1.1921,4.02919 -2.343,8.06794 -3.5446,12.09142 -0.2897,0.96623 -0.7756,1.98977 0.1978,2.72877 1.171,0.88605 2.0959,-0.10312 2.9585,-0.74664 2.9582,-2.20556 5.8817,-4.45886 9.1873,-6.97567"
           inkscape:connector-curvature="0" /><path
           id="path6471"
           style="fill:#f9fafb;fill-opacity:1;fill-rule:evenodd;stroke:none"
           d="m 1381.1223,523.68676 c 0.4926,-1.34052 1.0091,-2.69249 1.4867,-4.05975 0.3955,-1.13429 0.5299,-2.33541 -0.8636,-2.79562 -1.1889,-0.39146 -1.8129,0.5786 -2.1771,1.53912 -1.6675,4.39393 -3.2439,8.82414 -4.9582,13.20278 -0.5293,1.34817 -0.099,2.30104 1.0091,2.72497 2.057,0.78675 4.0341,1.8771 6.3958,1.74153 3.1042,-0.18141 5.58,-1.91721 5.3635,-4.94388 -0.2433,-3.43533 1.8011,-5.42701 3.5297,-7.66503 0.7061,-0.9166 1.2658,-1.64415 0.4672,-2.50728 -0.8927,-0.96432 -2.0428,-0.71226 -2.9856,0.10123 -0.4597,0.39719 -0.8425,0.90895 -1.1824,1.4169 -1.9687,2.94838 -2.3733,3.04768 -6.0851,1.24504"
           inkscape:connector-curvature="0" /><path
           id="path6473"
           style="fill:#f9fafc;fill-opacity:1;fill-rule:evenodd;stroke:none"
           d="m 1414.8993,534.03855 c 0,2.22848 0.019,4.45694 0,6.6835 -0.019,1.47038 0.6307,2.41944 2.1549,2.45381 2.6049,0.0612 5.2128,0.0134 7.8184,0.0267 0.8936,0.005 1.3987,-0.49839 1.5809,-1.2775 0.2477,-1.07508 -0.4582,-1.48946 -1.3473,-1.83701 -1.6935,-0.66453 -3.44,-0.31699 -5.1568,-0.34181 -1.5122,-0.021 -1.8823,-0.73137 -1.8474,-2.07952 0.035,-1.34243 0.038,-2.52446 1.9064,-2.40798 1.2366,0.0745 2.4825,0.0115 3.7229,-0.003 0.8869,-0.0115 1.7832,0.0115 1.7989,-1.2775 0.019,-1.31379 -0.7166,-1.70717 -1.8862,-1.69572 -1.3651,0.0153 -2.7338,0.0305 -4.0953,-0.0382 -2.0333,-0.10887 -1.2905,-1.70716 -1.41,-2.80325 -0.1299,-1.18203 0.2844,-1.88092 1.6585,-1.79117 1.7301,0.10887 3.467,0.11266 5.2008,0.1413 1.0263,0.0172 1.6914,-0.53086 1.7079,-1.5353 0.019,-0.97579 -0.5697,-1.61549 -1.6139,-1.62313 -2.731,-0.0172 -5.4629,-0.0325 -8.1916,0.008 -1.5122,0.0228 -1.7541,1.12474 -1.7577,2.32967 -0.019,2.35833 0,4.71474 0,7.07115 l -0.2365,-0.002"
           inkscape:connector-curvature="0" /><path
           id="path6475"
           style="fill:#f7f9fb;fill-opacity:1;fill-rule:evenodd;stroke:none"
           d="m 1390.9977,328.11595 c -3.7454,0.11647 -6.2652,1.90575 -8.0723,4.82739 -0.3985,0.64352 -0.7373,1.33096 0.038,1.98023 0.7882,0.66071 1.5146,0.73327 2.246,-0.10312 0.6502,-0.74473 1.3442,-1.4551 2.0302,-2.16928 0.7955,-0.82684 1.7369,-1.31378 2.9027,-1.50093 1.4973,-0.24251 2.8916,-0.0171 3.4946,1.39209 0.5941,1.38826 -0.6875,2.21128 -1.6421,2.93693 -0.8822,0.67025 -1.904,1.15337 -2.8227,1.78162 -2.7529,1.88094 -3.7283,4.28698 -2.7169,6.58803 1.024,2.32394 4.4461,3.53843 7.4221,2.56264 2.0786,-0.68362 3.5616,-2.19982 4.9163,-3.83251 0.5165,-0.62252 0.6464,-1.36152 -0.037,-1.98213 -0.6249,-0.56714 -1.3885,-0.60152 -2.0295,-0.10313 -0.5762,0.44875 -1.0108,1.07508 -1.5273,1.60595 -0.7925,0.81538 -1.686,1.44936 -2.8705,1.55438 -1.1375,0.0993 -2.3832,0.21006 -2.9631,-0.97387 -0.6164,-1.25459 0.3918,-1.99741 1.2628,-2.7307 1.4212,-1.19538 3.2185,-1.84655 4.4964,-3.26536 1.8383,-2.03942 2.2166,-3.6301 1.2448,-5.69052 -1.1292,-2.40034 -3.2989,-2.7498 -5.374,-2.87773"
           inkscape:connector-curvature="0" /><path
           id="path6477"
           style="fill:#fafbfb;fill-opacity:1;fill-rule:evenodd;stroke:none"
           d="m 1488.6386,499.60704 c 0.1395,0.50987 0.2866,1.24123 0.5484,1.92868 0.256,0.67407 0.1357,1.22404 -0.3764,1.6575 -1.0318,0.87458 -2.0675,1.75489 -3.1623,2.54546 -1.3433,0.96816 -2.2891,-0.31316 -3.361,-0.74091 -0.8542,-0.34373 -1.7139,-0.71227 -2.2738,0.26161 -0.6803,1.18203 -0.1624,2.15017 0.9401,2.78416 2.7782,1.60022 5.5775,3.16606 8.371,4.73766 1.6127,0.90322 3.233,1.79689 4.8571,2.67912 0.6687,0.36282 1.3567,0.61106 2.0617,0.0592 0.793,-0.6187 0.921,-1.38253 0.5923,-2.30485 -1.7369,-4.87323 -3.4393,-9.75792 -5.201,-14.6216 -0.3039,-0.8364 -0.921,-1.55249 -1.9681,-1.28132 -1.0662,0.27689 -1.1083,1.1782 -1.028,2.2953"
           inkscape:connector-curvature="0" /><path
           id="path6479"
           style="fill:#f9fafb;fill-opacity:1;fill-rule:evenodd;stroke:none"
           d="m 1361.9319,525.14758 c 0.1547,1.15147 -0.2001,2.06997 0.6092,2.4519 0.9702,0.4602 1.8881,0.12794 2.7323,-0.56715 3.8112,-3.14315 7.6506,-6.25003 11.4789,-9.37409 0.8747,-0.71419 1.2412,-1.64988 0.5732,-2.60275 -0.7741,-1.10565 -1.9339,-0.67981 -2.5759,0.0402 -1.916,2.14637 -3.6559,1.10756 -5.5472,0.0381 -1.4472,-0.81921 -2.1249,-1.78736 -1.8159,-3.54799 0.1954,-1.1171 0.4651,-2.82235 -1.2891,-2.93693 -1.6307,-0.10312 -1.651,1.50857 -1.8532,2.71351 -0.7956,4.73766 -1.5891,9.47531 -2.3123,13.78521"
           inkscape:connector-curvature="0" /><path
           id="path6481"
           style="fill:#fafbfd;fill-opacity:1;fill-rule:evenodd;stroke:none"
           d="m 1402.6524,523.16735 c -4.1387,-0.0592 -7.1719,1.78545 -8.6811,5.62751 -1.4024,3.57091 -1.0262,7.0578 1.6578,9.99853 2.7593,3.02477 6.2405,3.78669 10.1427,2.85672 0.5881,-0.14131 1.165,-0.42775 1.6815,-0.74856 0.6635,-0.41437 1.0823,-1.02925 0.8158,-1.86756 -0.2747,-0.86121 -1.0008,-1.08464 -1.7689,-0.97388 -0.8479,0.12413 -1.6599,0.49841 -2.5094,0.63017 -2.896,0.45065 -5.8448,-1.15148 -7.0033,-3.74658 -1.0867,-2.42898 -0.444,-5.19596 1.6338,-7.05206 2.0966,-1.87138 5.0173,-2.13681 7.5573,-0.64735 0.5275,0.30744 1.0196,0.70273 1.4733,1.11329 0.9023,0.81728 1.8249,0.85549 2.5705,-0.0783 0.7644,-0.96051 0.3017,-1.91911 -0.4724,-2.63329 -1.3823,-1.26987 -2.9423,-2.2724 -4.8748,-2.46717 -0.7337,-0.0706 -1.4823,-0.0115 -2.2228,-0.0115"
           inkscape:connector-curvature="0" /><path
           id="path6483"
           style="fill:#fafbfd;fill-opacity:1;fill-rule:evenodd;stroke:none"
           d="m 1414.1753,325.49792 c 0.5478,1.52192 1.1255,3.14887 1.7168,4.77201 1.1433,3.1317 2.3039,6.25767 3.4355,9.39129 0.3135,0.87076 0.7292,1.64986 1.7764,1.56585 0.8098,-0.0669 1.2503,-0.71419 1.5345,-1.43791 1.8563,-4.709 3.7201,-9.41611 5.5599,-14.13275 0.3426,-0.88032 0.3052,-1.77018 -0.6538,-2.24375 -1.2428,-0.6168 -1.7271,0.32463 -2.266,1.1973 -0.5591,0.90514 -0.5249,2.36978 -1.8839,2.54546 -1.3391,0.17568 -2.717,0.0726 -4.0768,0.0669 -0.6837,0 -1.1621,-0.35518 -1.4159,-0.98725 -0.2291,-0.57097 -0.4657,-1.14384 -0.6524,-1.73007 -0.3543,-1.11711 -1.0673,-1.70525 -2.2317,-1.33097 -1.0957,0.35518 -0.7985,1.37298 -0.8426,2.32395"
           inkscape:connector-curvature="0" /><path
           id="path6485"
           style="fill:#f8fafb;fill-opacity:1;fill-rule:evenodd;stroke:none"
           d="m 1406.6696,331.26101 c -1.7674,0.59006 -2.2728,-0.66454 -2.3615,-2.57984 -0.046,-0.96243 -0.3173,-1.94394 -0.6538,-2.85482 -0.2254,-0.61106 -0.901,-0.81156 -1.5578,-0.72944 -0.6725,0.0858 -1.1711,0.48312 -1.239,1.16292 -0.062,0.59962 0,1.22595 0.094,1.82555 0.6569,4.12469 1.301,8.25127 2.027,12.36448 0.4389,2.48246 0.7188,2.62375 3.1672,2.2304 0.9717,-0.15468 1.9449,-0.30554 2.9123,-0.48885 3.358,-0.63399 5.4172,-3.14508 5.074,-6.16793 -0.3652,-3.18326 -2.7371,-5.08328 -6.2279,-4.97252 -0.2434,0.008 -0.4859,0.0822 -1.2345,0.21005"
           inkscape:connector-curvature="0" /><path
           id="path6487"
           style="fill:#f7f8fa;fill-opacity:1;fill-rule:evenodd;stroke:none"
           d="m 1435.4668,539.80928 c -0.4531,-3.40476 -0.8829,-6.81335 -1.3653,-10.2143 -0.3799,-2.6734 -0.2761,-2.80516 2.4057,-3.27682 1.327,-0.2368 2.7266,-0.005 3.9925,-0.6187 0.6746,-0.32845 1.401,-0.65881 1.2949,-1.56586 -0.1147,-0.98915 -0.7537,-1.63077 -1.7549,-1.50092 -2.9183,0.37428 -5.8329,0.78483 -8.7237,1.32142 -0.9613,0.18141 -1.2047,1.08464 -1.0642,2.05661 0.6866,4.73575 1.3575,9.47339 2.0211,14.20913 0.1606,1.14384 0.686,1.85611 1.9309,1.6957 1.2638,-0.1604 1.5914,-0.96815 1.263,-2.10626"
           inkscape:connector-curvature="0" /><path
           id="path6489"
           style="fill:#f5f6f8;fill-opacity:1;fill-rule:evenodd;stroke:none"
           d="m 1435.9116,326.89572 c 0.038,-0.69126 0.059,-0.93569 0.067,-1.18202 0.035,-0.99107 -0.3702,-1.74536 -1.4024,-1.7931 -1.0151,-0.0459 -1.4996,0.64736 -1.6377,1.62887 -0.5127,3.64348 -1.0433,7.28883 -1.5749,10.93039 -0.1605,1.09037 -0.4037,2.16928 -0.5113,3.26156 -0.096,0.95479 0.2717,1.69761 1.3347,1.86756 1.0285,0.16613 1.7225,-0.32271 1.8987,-1.29278 0.2852,-1.56967 0.4278,-3.16225 0.6412,-4.74338 0.4097,-3.04004 0.8285,-6.07816 1.1853,-8.6771"
           inkscape:connector-curvature="0" /><path
           id="path6491"
           style="fill:#00838f;fill-opacity:1;fill-rule:evenodd;stroke:none"
           d="m 1399.991,447.12243 c 1.2143,2.0738 1.1719,4.31564 1.4539,6.45628 1.3054,9.91067 2.5153,19.83472 3.6931,29.76259 0.2314,1.96113 0.1433,3.92608 -0.5851,5.86048 -0.8919,2.36979 -0.4404,4.19724 1.0068,5.37354 1.1264,0.91469 2.2594,0.84976 3.3962,0.0573 1.5935,-1.10755 2.2471,-3.03239 1.3852,-5.32961 -1.4697,-3.91845 -0.418,-7.87318 -0.3061,-11.77062 0.1892,-6.53456 0.8308,-13.05765 1.3951,-19.57502 0.6493,-7.50654 1.0956,-15.02261 1.4053,-23.13449 2.1101,2.69061 2.3692,5.24751 1.8371,7.89992 -0.2703,1.34243 -0.5576,2.6543 -0.5204,4.03109 0.034,1.22979 0.4344,2.26667 1.7153,2.52065 1.3838,0.27116 1.986,-0.86504 2.4362,-1.86756 0.3432,-0.76766 0.4307,-1.66515 0.5463,-2.51683 0.515,-3.7905 1.0091,-7.58482 1.4861,-11.38104 0.078,-0.63972 0.1394,-1.36153 0.8173,-1.5143 0.8396,-0.18713 1.3329,0.51558 1.6629,1.16483 0.5127,1.01972 0.4867,2.15592 0.5076,3.27111 0.2477,13.74702 0.4971,27.49403 0.7501,41.24105 0.023,1.23358 0.082,2.44234 0.3351,3.67975 0.4238,2.07762 0.2621,4.15332 -0.7493,6.145 -1.0584,2.08144 0.3626,5.74208 2.3884,6.51356 1.4339,0.54614 5.0209,-2.27812 4.4926,-3.98719 -1.6742,-5.42702 1.1732,-10.18185 1.8635,-15.2193 0.8375,-6.10681 1.6809,-12.22317 2.6154,-18.32044 0.3329,-2.16929 0.6868,-4.33856 1.1539,-6.49255 0.6069,4.58488 0.5748,9.17168 0.5755,13.76038 0,1.35388 -0.05,2.69442 0.2851,4.05975 0.5546,2.2533 0.2807,4.46076 -1.3344,6.28442 -1.7205,1.94393 -1.0583,3.93562 -0.1068,5.85283 1.077,2.17119 3.2967,2.40798 4.7955,0.54042 0.8502,-1.05792 1.7272,-2.28194 1.5308,-3.69694 -0.7726,-5.5836 1.1296,-10.78527 2.2932,-16.05951 2.0005,-9.06666 3.2158,-18.23642 4.1635,-27.44821 0.8867,-8.61599 2.6312,-17.09067 4.1482,-25.594 2.2815,-12.76168 4.3241,-25.55581 6.2368,-38.37478 0.2751,-1.83892 -0.1815,-3.00185 -1.9395,-3.88789 -8.3671,-4.21252 -17.1205,-7.05205 -26.4467,-8.20734 -15.4545,-1.9153 -30.0315,0.90895 -43.8942,7.81397 -1.4405,0.718 -2.7497,1.73007 -4.2334,2.31631 -2.7251,1.077 -3.3767,3.11452 -2.8139,5.65807 0.7046,3.18516 0.3985,6.41234 0.6568,9.61278 0.3268,4.05212 0.3694,8.13669 1.6473,12.05705 0.8925,2.74024 0.8763,5.6256 1.0479,8.42886 0.9037,14.6827 2.9452,29.22219 5.0992,43.75214 1.1958,8.05838 2.6811,16.07477 3.8476,24.13889 0.4389,3.02287 0.7949,6.09728 -0.7768,9.09149 -0.9487,1.80454 0.7843,4.98398 2.7683,5.84138 1.7696,0.76383 4.5372,-0.10313 5.671,-1.73198 0.6575,-0.94715 0.5948,-1.82365 -0.042,-2.73834 -1.6644,-2.39459 -1.6503,-5.06608 -1.4824,-7.84833 0.3822,-6.29586 0.6338,-12.59936 0.8562,-18.90096 0.09,-2.58174 0.5784,-5.0852 1.2644,-7.58864"
           inkscape:connector-curvature="0" /><path
           id="path6493"
           style="fill:#00838f;fill-opacity:1;fill-rule:evenodd;stroke:none"
           d="m 1459.5951,529.02974 c -0.094,-3.11832 -3.2998,-6.42763 -6.1582,-6.35123 -2.9656,0.0764 -5.6215,3.12597 -5.5126,6.33404 0.1108,3.29021 3.0343,6.26531 6.1258,6.23094 3.0038,-0.0305 5.6407,-2.98847 5.545,-6.21375"
           inkscape:connector-curvature="0" /><path
           id="path6495"
           style="fill:#00838f;fill-opacity:1;fill-rule:evenodd;stroke:none"
           d="m 1352.452,507.94805 c 2.4147,2.70205 3.9119,3.18518 5.3777,1.73199 1.1682,-1.15528 0.7532,-2.81471 -1.0741,-4.28508 -1.6704,-1.34624 -1.7562,-1.29469 -4.3036,2.55309"
           inkscape:connector-curvature="0" /><path
           id="path6497"
           style="fill:#00838f;fill-opacity:1;fill-rule:evenodd;stroke:none"
           d="m 1352.2826,513.36743 c -0.2769,-1.15529 -0.8576,-2.06997 -2.078,-2.35069 -0.6582,-0.15085 -2.3959,1.85037 -2.1496,2.52064 0.3637,0.98725 1.1159,1.62505 2.2369,1.60404 1.1503,-0.0192 1.8167,-0.63015 1.9907,-1.77399"
           inkscape:connector-curvature="0" /><path
           id="path6499"
           style="fill:#00838f;fill-opacity:1;fill-rule:evenodd;stroke:none"
           d="m 1384.2861,530.01891 c -0.1985,-1.0579 -2.9781,-2.92357 -4.0283,-2.70206 -0.6538,0.13941 -1.933,2.82236 -1.809,3.79433 0.1165,0.89367 2.3286,1.99933 3.6147,1.80645 1.2852,-0.19478 2.4465,-1.70906 2.2226,-2.89872"
           inkscape:connector-curvature="0" /><path
           id="path6501"
           style="fill:#00838f;fill-opacity:1;fill-rule:evenodd;stroke:none"
           d="m 1491.757,509.871 c 0.3917,-1.47609 -0.493,-2.41752 -0.986,-3.47733 -1.0968,0.12604 -1.8745,0.64353 -2.4438,1.69379 0.8636,1.01015 1.8553,1.75299 3.4298,1.78354"
           inkscape:connector-curvature="0" /><path
           id="path6503"
           style="fill:#00838f;fill-opacity:1;fill-rule:evenodd;stroke:none"
           d="m 1366.1244,521.7982 c 1.5016,-0.61871 2.2704,-1.56203 3.3803,-2.5321 -0.8822,-0.69508 -1.5324,-1.49711 -2.7302,-1.58494 -0.4919,1.22976 -1.1061,2.42706 -0.6501,4.11704"
           inkscape:connector-curvature="0" /><path
           id="path6505"
           style="fill:#00838f;fill-opacity:1;fill-rule:evenodd;stroke:none"
           d="m 1419.4373,330.77788 c 0.5442,1.457 0.6404,2.71541 1.9004,3.8898 0.3663,-1.3959 1.6383,-2.40034 1.0001,-3.70075 -0.4993,-1.01208 -1.7161,-0.56333 -2.9005,-0.18905"
           inkscape:connector-curvature="0" /></g><path
         inkscape:connector-curvature="0"
         d="m 1407.6204,334.19793 c -0.9597,0.1604 -2.2988,-0.021 -2.2295,1.89048 0.072,2.07952 0.6853,3.27491 1.9491,3.25391 1.9778,-0.0305 3.7921,-1.415 3.6848,-2.81089 -0.1069,-1.39017 -1.4413,-2.36788 -3.4044,-2.3335"
         style="fill:#00838f;fill-opacity:1;fill-rule:evenodd;stroke:none"
         id="path6507" /></g><rect
       style="fill:#ffffff;fill-opacity:1;stroke:#d0d0d0;stroke-width:0.80000001;stroke-linecap:round;stroke-linejoin:miter;stroke-miterlimit:3.29999995;stroke-opacity:1;stroke-dasharray:none;stroke-dashoffset:0"
       id="rect5016"
       width="44.098839"
       height="45.290699"
       x="356.58832"
       y="-512.79565"
       transform="matrix(0.92793293,0.37274721,0.37274721,-0.92793293,0,0)" /><path
       id="path6409"
       style="fill:#f9a825;fill-opacity:1;fill-rule:evenodd;stroke:none"
       d="m 237.0973,248.55447 c 54.09288,-0.52896 102.53439,21.89183 135.88342,53.28592 40.7539,38.35869 62.71445,85.64664 63.60392,141.29712 0.95936,59.65543 -21.63334,110.21157 -66.04999,150.52235 -37.72334,34.24354 -82.98181,51.14491 -133.87573,51.19529 C 182.75028,644.91198 135.63979,625.93241 96.957085,588.62533 58.290297,551.33715 37.686185,505.29288 36.475874,451.79599 35.157531,393.42519 56.269892,343.48929 98.926646,303.05573 137.4791,266.5169 183.99237,249.13066 237.0973,248.55447 z m 206.26643,207.4165 c 1.82342,-59.18314 -16.6491,-110.02266 -57.34266,-152.04625 -40.63637,-41.95747 -91.25075,-62.98974 -149.68619,-63.08732 -56.5707,-0.0944 -105.64121,20.27031 -145.715318,60.10566 -40.08997,39.8448 -60.455791,88.58108 -60.458976,144.62513 -0.0034,57.25308 21.248961,106.68833 62.857395,146.58667 40.147169,38.49409 88.992129,57.87649 144.689239,57.81982 56.91062,-0.0567 106.10502,-20.83075 146.13147,-60.95892 36.88467,-36.97647 56.51987,-82.00063 59.52504,-133.04479"
       inkscape:connector-curvature="0" /><path
       id="path6411"
       style="fill:#ffffff;fill-opacity:1;fill-rule:evenodd;stroke:none"
       d="m 235.30246,252.95613 c 51.09725,0.47542 96.15877,16.93916 133.80586,51.3968 40.96993,37.50544 61.99968,84.60762 63.08612,139.65988 1.07691,54.30606 -18.5456,101.29489 -57.32358,139.54967 -38.22842,37.71009 -85.20233,56.85322 -139.07283,56.91305 -53.09858,0.0567 -99.19251,-19.08332 -136.884079,-56.16684 C 61.835489,547.82024 42.031927,503.07946 40.847013,451.25446 38.312009,340.12352 129.97255,252.36735 235.30246,252.95613 z m 1.79484,-4.40166 c -53.10493,0.57619 -99.6182,17.96243 -138.170654,54.50126 -42.656754,40.43356 -63.769115,90.36946 -62.450772,148.74026 1.210311,53.49689 21.814423,99.54116 60.481211,136.82934 38.682705,37.30708 85.793195,56.2865 139.701835,56.22982 50.89392,-0.0503 96.15239,-16.95175 133.87573,-51.19529 C 414.9513,553.34908 437.544,502.79294 436.58464,443.13751 435.69517,387.48703 413.73462,340.19908 372.98072,301.84039 339.63169,270.4463 291.19018,248.02551 237.0973,248.55447"
       inkscape:connector-curvature="0" /><path
       id="path6413"
       style="fill:#f9a825;fill-opacity:1;fill-rule:evenodd;stroke:none"
       d="m 260.97656,272.62508 -0.054,0 c 0,0.59506 0.0698,1.19959 -0.0115,1.77891 -0.96571,6.56158 -1.95683,13.12314 -2.93527,19.6847 -0.26367,1.77262 -0.39709,3.9514 -2.91303,3.46653 -2.23959,-0.43134 -2.99882,-2.27639 -2.63032,-4.56538 0.62265,-3.94196 1.12138,-7.90913 1.7313,-11.86055 0.48922,-3.16429 0.81959,-6.38839 1.72495,-9.43934 0.38757,-1.30348 2.06486,-2.22917 3.15448,-3.32485 0.64168,1.32239 1.28973,2.64163 1.92824,3.96401 l 0.007,0.29597 z m 27.84379,345.24078 c -0.71793,0.62341 -1.51528,1.77262 -2.58902,2.1473 -1.76941,0.61711 -2.79231,-0.6675 -3.21163,-2.22602 -2.07757,-7.68243 -4.00583,-15.39954 -6.19139,-23.04734 -0.52098,-1.82614 -0.55593,-3.3343 1.2802,-3.84436 1.84886,-0.50691 3.38001,0.30855 3.95817,2.46845 1.50576,5.5194 3.15765,10.99787 4.70788,16.50781 0.67664,2.42123 1.25161,4.87395 2.04579,7.99416 z M 209.22808,279.59594 c 0.74654,-0.11972 1.67413,-0.20781 2.57631,-0.41876 5.46394,-1.25311 11.25507,1.68135 12.47175,6.34746 1.42315,5.43753 -1.50894,10.34611 -7.28102,11.87946 -1.97591,0.52266 -4.07887,0.58878 -6.12467,0.88475 -3.97088,0.57932 -4.86354,-0.19207 -5.36864,-3.92623 -0.96888,-7.15036 -2.17921,-14.26919 -3.11633,-21.4227 -0.14304,-1.08309 0.33673,-2.89665 1.1055,-3.31226 1.54386,-0.82492 3.19892,-0.10083 3.73579,1.74114 0.75287,2.59755 1.28974,5.25492 2.00131,8.22714 z m 27.85651,16.54559 c -0.40027,-0.0283 -0.80689,-0.0567 -1.21031,-0.0851 -0.93397,-1.21218 -2.20465,-2.29215 -2.73834,-3.65545 -2.84314,-7.26054 -5.58146,-14.56831 -8.11646,-21.9422 -0.37168,-1.07681 0.13006,-3.04778 0.96252,-3.80659 1.76308,-1.60577 3.30697,-0.68323 4.41244,2.1599 0.86409,2.20713 1.65825,4.31035 4.81908,4.30406 5.96583,-0.0131 5.95313,0.11332 7.66537,-3.87271 0.8196,-1.90802 2.29993,-3.29967 4.36479,-2.53773 2.1665,0.79658 1.66141,2.77387 0.9689,4.49297 -2.44288,6.0578 -4.8127,12.15337 -7.38266,18.16394 -1.01337,2.35826 -2.48418,4.52761 -3.74533,6.77881 z m -21.98913,301.04154 c -0.41615,1.41685 -0.48603,2.34881 -0.92443,3.05096 -4.30442,6.8764 -8.60568,13.75281 -13.09118,20.50959 -0.60039,0.90048 -2.40794,1.78206 -3.30693,1.51761 -1.01973,-0.29914 -1.96956,-1.79783 -2.36666,-2.96594 -0.61629,-1.823 -0.74969,-3.80659 -1.08008,-5.72721 -1.06101,-6.23725 -2.17287,-12.46822 -3.1513,-18.72123 -0.32083,-2.04025 0.87997,-3.6523 2.79234,-3.89789 1.94415,-0.24558 2.91622,1.10515 2.83361,3.20208 -0.0381,1.01068 0.24779,2.20082 0.79735,3.04148 2.69702,4.08998 9.69847,3.67435 12.23983,-0.5069 0.62263,-1.02329 2.06803,-2.14732 3.11318,-2.12213 0.78146,0.0164 1.52164,1.80097 2.14427,2.61958 z m -15.81045,-303.2896 c 1.18809,4.45205 -0.3812,6.91736 -3.15446,8.46957 -2.34441,1.3098 -4.95248,2.51254 -7.57326,2.90297 -3.47532,0.5195 -6.63612,-0.83752 -8.79628,-3.79714 -1.57248,-2.15992 -1.88696,-4.73225 -0.50828,-6.87326 1.33105,-2.07176 3.37049,-3.72158 5.22251,-5.42181 1.91236,-1.76004 4.16464,-3.18001 5.91819,-5.066 1.58834,-1.70964 0.58451,-2.93128 -1.40411,-3.71526 -3.43718,-1.36019 -6.09291,-0.18893 -8.58662,2.15045 -1.79484,1.67817 -3.14494,4.22218 -6.22951,3.73101 -1.51529,-1.96783 -0.90219,-3.66489 0.38756,-5.34622 3.85016,-5.01562 8.99006,-6.90474 15.17827,-6.04205 6.04844,0.84381 9.19655,7.38962 5.39405,12.07466 -2.53819,3.12019 -6.28988,5.24547 -9.38716,7.9469 -0.87677,0.76511 -1.3628,1.98045 -2.02675,2.98797 1.11505,0.65492 2.18242,1.70339 3.36097,1.85451 1.17538,0.15108 2.57312,-0.40301 3.68815,-0.9918 2.80185,-1.46407 5.4957,-3.12336 8.51673,-4.8645 z m 20.04816,310.19436 0.60357,0 c 0,-0.39987 0.003,-0.79659 0,-1.19014 -0.12695,-8.2366 -0.28589,-7.54391 7.70035,-7.34554 5.13989,0.12267 9.5968,2.06228 12.5702,6.51433 4.95884,7.4211 3.10681,16.78172 -4.24725,21.62732 -3.81203,2.51568 -8.05295,2.69201 -12.43362,2.38029 -3.41176,-0.24243 -4.17099,-0.88789 -4.18687,-4.25683 -0.0223,-5.91295 -0.007,-11.82276 -0.007,-17.72943 z m 36.59244,2.2575 c 0.65439,-0.0567 1.12772,-0.11019 1.61058,-0.13532 5.04778,-0.27079 6.17234,-1.47352 6.23904,-6.4671 0.0164,-1.3413 0.10477,-2.77387 0.59088,-3.99238 0.77193,-1.95524 2.45559,-2.54087 4.3902,-1.69075 1.89967,0.8375 2.02037,2.22601 1.25799,4.10256 -0.68302,1.68446 -0.92762,3.56729 -1.22306,5.38086 -0.41296,2.57235 -0.2446,4.88338 1.58202,7.19126 3.26882,4.11829 1.0483,12.00539 -5.19709,13.68987 -3.0973,0.83748 -6.34705,1.41053 -9.53965,1.44831 -1.07689,0.0131 -2.91303,-1.87338 -3.13857,-3.11075 -1.25798,-7.09367 -2.27452,-14.24086 -3.04328,-21.40694 -0.20331,-1.88912 0.77511,-3.90103 1.24844,-6.00426 5.6577,2.41806 4.14561,7.09365 5.2225,10.99471 z m 43.8353,-23.07566 c 2.28087,0.42191 3.96453,0.57618 5.54335,1.05162 6.22315,1.87968 11.9031,9.33857 10.36559,17.31383 -1.46128,7.58797 -6.66473,11.00415 -13.42793,13.23962 -2.28722,0.75879 -3.46577,0.0378 -4.21866,-1.76948 -3.09412,-7.37389 -6.03573,-14.81389 -9.12666,-22.19093 -1.04832,-2.50625 0.0445,-4.10254 2.14108,-4.92747 2.97658,-1.16496 6.11833,-1.92375 8.72323,-2.71719 z M 272.4667,288.82747 c 3.33554,-2.52198 6.14056,-4.82356 9.13936,-6.86068 2.87811,-1.96153 5.92455,-3.68692 8.93926,-5.44381 1.64552,-0.95717 2.26815,0.0535 2.20144,1.50185 -0.10165,2.0371 -0.17789,4.13088 -0.7084,6.08297 -1.24845,4.60632 -2.72561,9.15281 -4.18055,13.69931 -0.56228,1.75375 -1.10867,3.59249 -2.10932,5.10379 -0.47333,0.7336 -2.04262,1.19959 -2.98928,1.03902 -0.65123,-0.11331 -1.35009,-1.46722 -1.52482,-2.35826 -0.17149,-0.8816 0.21919,-1.90172 0.48921,-2.82738 1.19126,-4.05217 2.43336,-8.0949 3.8597,-12.78623 -5.67995,4.1781 -10.68961,8.00358 -15.87399,11.56459 -1.19126,0.81861 -3.0242,0.72732 -4.55856,1.05475 -0.18742,-1.4798 -0.86406,-3.1013 -0.48286,-4.42054 1.88379,-6.54583 4.16148,-12.97831 6.05796,-19.52097 0.62584,-2.1473 1.54708,-3.48228 4.02171,-3.72471 0.37485,0.6045 1.22621,1.35071 1.1182,1.91115 -1.00066,5.1888 -2.17604,10.34611 -3.39906,15.98515 z M 175.31044,604.6766 c 0.40345,-0.77767 0.65759,-1.18384 0.8323,-1.62148 1.68682,-4.26628 3.22436,-8.59553 5.13038,-12.7579 0.4765,-1.04533 2.11569,-2.16621 3.24024,-2.18509 1.76306,-0.0253 2.29358,1.60575 2.02356,3.27763 -0.12071,0.7525 -0.27638,1.52075 -0.5464,2.23232 -2.01722,5.29271 -3.92641,10.63262 -6.15645,15.83086 -1.15314,2.67941 -2.89715,5.11009 -4.59669,8.02879 -5.46393,-4.57482 -4.48869,-10.78376 -6.8585,-15.80884 -3.51979,2.16305 -6.94109,4.46465 -10.57206,6.37266 -1.21986,0.63915 -2.97976,0.26133 -4.48868,0.34633 -0.0667,-1.39795 -0.52733,-2.9187 -0.12383,-4.1655 1.25797,-3.9105 2.80505,-7.72653 4.30444,-11.55516 1.28338,-3.26503 2.45876,-6.59935 4.09795,-9.68806 0.56226,-1.0642 2.37935,-1.47667 3.62461,-2.18825 0.49557,1.28776 1.12138,2.54718 1.43269,3.87902 0.13023,0.55413 -0.40027,1.2657 -0.64487,1.89856 -1.53434,3.96402 -3.07821,7.92487 -4.93024,12.68863 2.51277,-1.54594 4.28536,-2.71089 6.12786,-3.75936 3.82475,-2.17878 4.8286,-1.80412 6.15011,2.33935 0.67344,2.12528 1.22938,4.28519 1.95366,6.83549 z M 371.43683,448.27279 c 0.62581,71.8812 -59.94753,128.72813 -129.35846,130.68968 -80.30068,2.26695 -137.43047,-59.96713 -139.65417,-126.47694 -1.27387,-38.15088 10.10192,-72.40071 37.74875,-99.76471 26.57945,-26.30605 59.23277,-40.30762 96.92435,-40.20057 36.83385,0.0977 68.98526,13.04756 95.19304,39.13953 26.04895,25.94083 39.56264,57.14605 39.14649,96.61301 z M 235.30246,252.95613 C 129.97255,252.36735 38.312009,340.12352 40.847013,451.25446 c 1.184914,51.825 20.988476,96.56578 58.066938,133.05423 37.691569,37.08352 83.785499,56.22351 136.884079,56.16684 53.8705,-0.0598 100.84441,-19.20296 139.07283,-56.91305 38.77798,-38.25478 58.40049,-85.24361 57.32358,-139.54967 C 431.108,388.96055 410.07825,341.85837 369.10832,304.35293 331.46123,269.89529 286.39971,253.43155 235.30246,252.95613"
       inkscape:connector-curvature="0" /><path
       id="path6415"
       style="fill:#ffffff;fill-opacity:1;fill-rule:evenodd;stroke:none"
       d="m 220.47679,409.14584 0.82913,0.69898 c 1.30878,-0.91308 2.57946,-1.87022 3.91685,-2.72663 1.89968,-1.21533 3.71357,-2.78645 5.80067,-3.43506 4.76189,-1.47982 9.76837,-2.21342 14.4794,-3.82547 1.84885,-0.63285 3.70088,-2.53458 4.638,-4.32609 3.26247,-6.24357 5.7403,-12.90588 9.2442,-19.00145 3.04963,-5.31474 7.17616,-10.01867 10.61019,-15.13192 0.67663,-1.00122 0.86087,-2.80849 0.44791,-3.95456 -1.58834,-4.4111 -3.65003,-8.65534 -5.22251,-13.07589 -0.49555,-1.39795 -0.4892,-3.36579 0.13023,-4.68818 1.70589,-3.63026 4.00581,-6.98346 5.76889,-10.58854 0.91172,-1.85765 1.78215,-1.93005 3.59921,-1.35073 14.34916,4.58113 27.35457,11.63386 39.28309,20.68907 1.04195,0.79343 2.22368,1.96784 2.4524,3.13281 0.67666,3.45079 1.04198,6.97403 1.26751,10.48778 0.15881,2.55347 0.48922,5.31475 -0.27319,7.66355 -2.1284,6.58047 -4.21231,13.28055 -7.37313,19.40131 -4.21229,8.16104 -9.21878,15.94108 -14.26339,23.64557 -2.15699,3.30281 -2.30627,6.53006 -1.76942,10.09106 0.93713,6.19319 0.39073,11.96448 -4.52044,16.62746 -1.9505,1.84504 -3.13223,3.91678 -1.88379,6.83233 0.8323,1.9458 1.0769,4.14349 1.57246,6.23096 1.14681,4.81413 1.84886,9.68492 6.19458,13.19555 2.24275,1.81042 1.52481,5.32733 -0.93078,7.1409 -3.71038,2.74551 -7.57007,5.28955 -11.30269,8.01619 -3.46262,2.53456 -7.08406,4.3796 -11.55051,4.65982 -2.99244,0.18893 -5.94041,1.15868 -7.78608,1.54594 -2.40161,5.56348 -4.28854,10.49094 -6.65203,15.19173 -1.20715,2.40862 -3.29739,4.37332 -4.92387,6.59304 -3.27202,4.46463 -5.3051,9.95253 -10.7722,12.58472 -1.33103,0.636 -3.04647,1.15236 -3.77392,2.25121 -3.75805,5.65164 -9.44752,8.15787 -15.61032,9.98088 -4.94612,1.46092 -9.80013,4.28516 -15.17192,2.25749 -7.61456,-2.86832 -15.33712,-5.6044 -22.56731,-9.2693 -3.48482,-1.76948 -5.95947,-5.51938 -8.86616,-8.38772 -1.03242,-1.01698 -1.80438,-2.66366 -3.01469,-3.06353 -5.90548,-1.93951 -9.15843,-7.11884 -13.6884,-10.70189 -1.35327,-1.0642 -2.33488,-3.0163 -2.73832,-4.73227 -0.88948,-3.78768 -1.01337,-7.76114 -1.99498,-11.51737 -0.93712,-3.60191 0.67347,-5.76812 3.17034,-7.77374 0.84501,-0.68009 1.69321,-1.35386 2.56045,-2.00246 4.23136,-3.16745 8.01481,-6.94254 13.35801,-8.50737 3.55792,-1.04216 7.09357,-2.35511 10.37195,-4.06162 4.10428,-2.14416 8.03387,-3.24615 12.31923,-0.73991 0.0954,0.0535 0.34309,-0.14797 0.63534,-0.28651 0.28909,-3.83492 0.78783,-7.73913 0.8323,-11.64015 0.1143,-10.50355 -0.0164,-21.01023 0.0859,-31.51692 0.019,-2.23546 -0.52416,-3.87586 -2.23004,-5.44382 -3.08776,-2.83684 -3.52931,-5.25492 -1.40728,-8.66479 3.23707,-5.20453 4.35208,-10.84043 4.18053,-16.81005 -0.3653,-12.72327 -0.55592,-25.45599 -1.28021,-38.16034 -0.39072,-6.80716 -1.65188,-13.57651 -2.70654,-20.33329 -0.32086,-2.0623 -0.26049,-3.28392 2.17287,-3.82234 8.33883,-1.85449 16.58873,-4.10568 24.96253,-5.75239 4.09477,-0.79971 8.39284,-0.60137 12.71314,-0.86898 -1.34691,2.40548 -3.00833,4.2946 -3.50389,6.44821 -1.3215,5.77757 -2.28088,11.64645 -3.11634,17.51533 -0.81325,5.71461 -1.27387,11.47644 -1.92192,17.2131 -0.75288,6.59619 -1.55977,13.18922 -2.319,19.78543 -0.60357,5.24547 -1.22303,10.49094 -1.73129,15.74586 -0.33673,3.50433 -0.4924,7.02438 -0.73064,10.535 z m 150.96004,39.12695 c 0.41615,-39.46696 -13.09754,-70.67218 -39.14649,-96.61301 -26.20778,-26.09197 -58.35919,-39.04192 -95.19304,-39.13953 -37.69158,-0.10708 -70.3449,13.89452 -96.92435,40.20057 -27.64683,27.364 -39.02262,61.61383 -37.74875,99.76471 2.2237,66.50981 59.35349,128.74389 139.65417,126.47694 69.41093,-1.96155 129.98427,-58.80848 129.35846,-130.68968"
       inkscape:connector-curvature="0" /><path
       id="path6417"
       style="fill:#ffffff;fill-opacity:1;fill-rule:evenodd;stroke:none"
       d="m 216.96924,491.14274 c -1.02019,-3.78031 -1.80323,-6.98198 -2.75182,-10.13229 -1.8614,-6.1419 -3.27533,-6.69726 -8.66266,-3.46763 -2.59525,1.55415 -5.092,3.28097 -8.63135,5.57251 2.60866,-7.06134 4.78326,-12.93255 6.94444,-18.80843 0.34454,-0.93809 1.09177,-1.99287 0.90833,-2.81426 -0.43848,-1.97419 -1.31996,-3.84103 -2.01801,-5.74989 -1.75399,1.05477 -4.31344,1.66619 -5.10543,3.24366 -2.30884,4.5784 -3.96441,9.52091 -5.77211,14.36067 -2.11196,5.67521 -4.29108,11.33173 -6.06297,17.1283 -0.56827,1.84813 0.0805,4.10236 0.1744,6.17454 2.12538,-0.12612 4.60427,0.43405 6.32248,-0.51337 5.11439,-2.82824 9.93345,-6.23992 14.89121,-9.44622 3.33798,7.44871 1.96431,16.65226 9.66049,23.43355 2.39387,-4.32641 4.85038,-7.92941 6.47464,-11.90113 3.14109,-7.70538 5.83027,-15.62079 8.67161,-23.4662 0.38033,-1.05477 0.59957,-2.19355 0.7696,-3.30898 0.38036,-2.47825 -0.3669,-4.89579 -2.85026,-4.85846 -1.58399,0.0281 -3.89282,1.68947 -4.56401,3.23898 -2.6847,6.16989 -4.85038,12.58718 -7.22635,18.91112 -0.24601,0.64873 -0.60404,1.25078 -1.17233,2.40353"
       inkscape:connector-curvature="0" /><path
       id="path6419"
       style="fill:#ffffff;fill-opacity:1;fill-rule:evenodd;stroke:none"
       d="m 272.4667,288.82747 c 1.22302,-5.63904 2.3984,-10.79635 3.39906,-15.98515 0.10806,-0.56044 -0.74335,-1.30665 -1.1182,-1.91115 -2.47463,0.24243 -3.39587,1.57741 -4.02171,3.72471 -1.89648,6.54266 -4.17417,12.97514 -6.05796,19.52097 -0.3812,1.31924 0.29544,2.94074 0.48286,4.42054 1.53436,-0.32743 3.3673,-0.23614 4.55856,-1.05475 5.18438,-3.56101 10.19404,-7.38649 15.87399,-11.56459 -1.42634,4.69133 -2.66844,8.73406 -3.8597,12.78623 -0.27002,0.92566 -0.66075,1.94578 -0.48921,2.82738 0.17465,0.89104 0.87359,2.2449 1.52482,2.35826 0.94666,0.16062 2.51595,-0.30542 2.98928,-1.03902 1.00065,-1.5113 1.54704,-3.35004 2.10932,-5.10379 1.45494,-4.5465 2.9321,-9.09299 4.18055,-13.69931 0.53051,-1.95209 0.60675,-4.04587 0.7084,-6.08297 0.0667,-1.44834 -0.55592,-2.45902 -2.20144,-1.50185 -3.01471,1.75689 -6.06115,3.48228 -8.93926,5.44381 -2.9988,2.03712 -5.80382,4.3387 -9.13936,6.86068"
       inkscape:connector-curvature="0" /><path
       id="path6421"
       style="fill:#ffffff;fill-opacity:1;fill-rule:evenodd;stroke:none"
       d="m 294.80208,591.1001 c 3.71039,-2.4055 8.04342,-2.68255 10.91833,-0.4597 3.06552,2.36771 5.48617,5.28957 4.74916,9.5149 -0.8577,4.82986 -3.55153,7.41166 -8.38013,8.33735 -2.43018,-5.79647 -4.86353,-11.60868 -7.28736,-17.39255 z m 4.95883,-7.83043 c -2.6049,0.79344 -5.74665,1.55223 -8.72323,2.71719 -2.09662,0.82493 -3.1894,2.42122 -2.14108,4.92747 3.09093,7.37704 6.03254,14.81704 9.12666,22.19093 0.75289,1.80726 1.93144,2.52827 4.21866,1.76948 6.7632,-2.23547 11.96665,-5.65165 13.42793,-13.23962 1.53751,-7.97526 -4.14244,-15.43415 -10.36559,-17.31383 -1.57882,-0.47544 -3.26248,-0.62971 -5.54335,-1.05162"
       inkscape:connector-curvature="0" /><path
       id="path6423"
       style="fill:#ffffff;fill-opacity:1;fill-rule:evenodd;stroke:none"
       d="m 260.73831,611.29799 0.23189,0.47859 0.59722,-0.007 c 2.15064,-0.33376 3.97089,0.38097 4.27267,2.53771 0.17789,1.27517 -0.43839,3.46024 -1.3628,3.91994 -1.88695,0.94141 -4.99378,2.00878 -6.15326,1.13347 -1.33105,-0.98549 -1.42,-4.06162 -1.30563,-6.19003 0.0381,-0.68638 2.41429,-1.25311 3.71991,-1.87337 z m -4.8127,-4.95266 c -1.07689,-3.90103 0.4352,-8.57663 -5.2225,-10.9947 -0.47333,2.10322 -1.45175,4.11515 -1.24844,6.00427 0.76876,7.16608 1.7853,14.31327 3.04328,21.40694 0.22554,1.23736 2.06168,3.12334 3.13857,3.11075 3.1926,-0.0378 6.44235,-0.61083 9.53965,-1.44831 6.24539,-1.6845 8.46591,-9.57157 5.19709,-13.68987 -1.82662,-2.30788 -1.99498,-4.61891 -1.58202,-7.19128 0.29544,-1.81356 0.54004,-3.69638 1.22306,-5.38086 0.76238,-1.87653 0.64168,-3.26504 -1.25799,-4.10256 -1.93461,-0.8501 -3.61827,-0.26447 -4.3902,1.69077 -0.48603,1.21849 -0.575,2.65108 -0.59088,3.99237 -0.0667,4.99358 -1.19126,6.19632 -6.23904,6.46709 -0.48286,0.0253 -0.95619,0.0788 -1.61058,0.13533"
       inkscape:connector-curvature="0" /><path
       id="path6425"
       style="fill:#ffffff;fill-opacity:1;fill-rule:evenodd;stroke:none"
       d="m 224.96229,601.16284 c 5.00649,-0.39043 8.80264,0.89104 11.14387,5.11008 2.09663,3.76565 1.59787,7.39278 -0.95301,10.71134 -2.55089,3.32486 -6.00397,4.14662 -10.19086,3.16113 0,-5.41234 0,-10.74281 0,-16.07331 0,-0.87529 0,-1.74744 0,-2.90924 z m -5.62912,2.92499 c 0,5.90667 -0.0164,11.81648 0.007,17.72943 0.0164,3.36894 0.77512,4.0144 4.18689,4.25683 4.38068,0.31172 8.62158,0.13532 12.43362,-2.38029 7.35407,-4.8456 9.20609,-14.20622 4.24726,-21.62732 -2.97341,-4.45205 -7.43033,-6.39156 -12.57021,-6.51433 -7.98623,-0.19837 -7.82741,-0.89106 -7.70035,7.34554 0.003,0.39355 0,0.79027 0,1.19014 l -0.60356,0"
       inkscape:connector-curvature="0" /><path
       id="path6427"
       style="fill:#ffffff;fill-opacity:1;fill-rule:evenodd;stroke:none"
       d="m 199.28501,293.89347 c -3.02103,1.74114 -5.71488,3.40043 -8.51673,4.8645 -1.11503,0.58879 -2.51277,1.14292 -3.68815,0.9918 -1.17855,-0.15125 -2.24592,-1.19959 -3.36097,-1.85451 0.66395,-1.00752 1.14998,-2.22286 2.02675,-2.98797 3.09728,-2.70143 6.84897,-4.82671 9.38716,-7.9469 3.8025,-4.68504 0.65439,-11.23085 -5.39405,-12.07466 -6.18821,-0.86269 -11.32811,1.02643 -15.17827,6.04205 -1.28975,1.68133 -1.90285,3.37839 -0.38756,5.34622 3.08457,0.49117 4.43467,-2.05284 6.22951,-3.73101 2.49371,-2.33938 5.14944,-3.51064 8.58662,-2.15045 1.98862,0.78398 2.99245,2.00562 1.40411,3.71526 -1.75355,1.88599 -4.00583,3.30596 -5.91819,5.066 -1.85202,1.70023 -3.89146,3.35005 -5.22251,5.42181 -1.37868,2.14101 -1.0642,4.71334 0.50828,6.87326 2.16016,2.95962 5.32096,4.31664 8.79628,3.79714 2.62078,-0.39043 5.22885,-1.59317 7.57326,-2.90297 2.77326,-1.55221 4.34255,-4.01752 3.15446,-8.46957"
       inkscape:connector-curvature="0" /><path
       id="path6429"
       style="fill:#ffffff;fill-opacity:1;fill-rule:evenodd;stroke:none"
       d="m 204.20891,605.53301 c -1.53117,2.43382 -2.79552,4.43631 -4.29173,6.81031 -0.48921,-2.78018 -0.89583,-5.08491 -1.37233,-7.7643 1.88697,0.31799 3.46895,0.58561 5.66406,0.95399 z m 10.88655,-8.34994 c -0.62263,-0.81861 -1.36281,-2.60383 -2.14427,-2.61958 -1.04515,-0.0253 -2.49055,1.09884 -3.11318,2.12213 -2.54136,4.18125 -9.54281,4.59688 -12.23983,0.5069 -0.54956,-0.84066 -0.83548,-2.0308 -0.79735,-3.04148 0.0826,-2.09693 -0.88946,-3.44766 -2.83361,-3.20208 -1.91237,0.24559 -3.11317,1.85764 -2.79234,3.89789 0.97843,6.25301 2.09029,12.48398 3.1513,18.72123 0.33039,1.92062 0.46379,3.90421 1.08008,5.72721 0.3971,1.16811 1.34693,2.6668 2.36666,2.96594 0.89899,0.26445 2.70654,-0.61713 3.30693,-1.51761 4.4855,-6.75678 8.78676,-13.63319 13.09118,-20.50959 0.4384,-0.70215 0.50828,-1.63411 0.92443,-3.05096"
       inkscape:connector-curvature="0" /><path
       id="path6431"
       style="fill:#ffffff;fill-opacity:1;fill-rule:evenodd;stroke:none"
       d="m 239.28604,278.6388 c -1.00382,2.47474 -1.83611,4.52444 -2.9194,7.18496 -0.94029,-2.76127 -1.64552,-4.84246 -2.38887,-7.04643 0.64171,-0.0535 1.12455,-0.12268 1.61059,-0.12909 1.08644,-0.022 2.17923,-0.008 3.69768,-0.008 z m -2.20145,17.50273 c 1.26115,-2.25121 2.73196,-4.42055 3.74533,-6.77882 2.56996,-6.01056 4.93978,-12.10613 7.38266,-18.16393 0.69251,-1.7191 1.1976,-3.6964 -0.9689,-4.49297 -2.06486,-0.76194 -3.54519,0.62971 -4.36479,2.53773 -1.71224,3.98604 -1.69954,3.86011 -7.66537,3.87271 -3.16083,0.007 -3.95499,-2.09694 -4.81908,-4.30407 -1.10547,-2.84312 -2.64936,-3.76566 -4.41244,-2.15989 -0.83229,0.7588 -1.3342,2.72977 -0.96252,3.80659 2.535,7.37388 5.27332,14.68165 8.11646,21.94219 0.53369,1.36331 1.80437,2.44327 2.73834,3.65546 0.40342,0.0282 0.81004,0.0566 1.21031,0.0851"
       inkscape:connector-curvature="0" /><path
       id="path6433"
       style="fill:#ffffff;fill-opacity:1;fill-rule:evenodd;stroke:none"
       d="m 213.8089,284.58639 c 3.55792,-0.003 4.88258,0.9729 4.92707,3.44764 0.0476,2.90612 -1.75037,4.60318 -5.93409,4.55593 -4.17418,-0.0471 -2.13474,-3.97975 -2.62078,-5.95387 -0.58451,-2.39604 2.17921,-1.93322 3.6278,-2.0497 z m -4.58082,-4.99045 c -0.71157,-2.97222 -1.24844,-5.62959 -2.00131,-8.22714 -0.53687,-1.8419 -2.19193,-2.56606 -3.73579,-1.74114 -0.76877,0.41561 -1.24844,2.22917 -1.1055,3.31226 0.93712,7.15351 2.14745,14.27234 3.11633,21.4227 0.5051,3.73416 1.39776,4.50555 5.36864,3.92623 2.0458,-0.29597 4.14876,-0.36209 6.12467,-0.88475 5.77208,-1.53335 8.70417,-6.44193 7.28102,-11.87946 -1.21668,-4.66611 -7.00781,-7.60057 -12.47175,-6.34746 -0.90218,0.21095 -1.82977,0.29912 -2.57631,0.41876"
       inkscape:connector-curvature="0" /><path
       id="path6435"
       style="fill:#ffffff;fill-opacity:1;fill-rule:evenodd;stroke:none"
       d="m 288.82035,617.86586 c -0.79418,-3.12021 -1.36915,-5.57293 -2.04579,-7.99416 -1.55023,-5.50994 -3.20212,-10.98841 -4.70788,-16.50781 -0.57816,-2.1599 -2.10931,-2.97536 -3.95817,-2.46845 -1.83613,0.51006 -1.80118,2.01822 -1.2802,3.84436 2.18556,7.6478 4.11382,15.36491 6.19139,23.04734 0.41932,1.55852 1.44222,2.84313 3.21163,2.22602 1.07374,-0.37468 1.87109,-1.52389 2.58902,-2.1473"
       inkscape:connector-curvature="0" /><path
       id="path6437"
       style="fill:#ffffff;fill-opacity:1;fill-rule:evenodd;stroke:none"
       d="m 260.97656,272.62508 -0.007,-0.29597 c -0.63851,-1.32238 -1.28656,-2.64162 -1.92826,-3.96401 -1.08962,1.09568 -2.76691,2.02137 -3.15447,3.32485 -0.90536,3.05095 -1.23573,6.27505 -1.72494,9.43934 -0.60992,3.95142 -1.10867,7.91859 -1.7313,11.86055 -0.36851,2.28899 0.39072,4.13404 2.6303,4.56538 2.51594,0.48487 2.64938,-1.69391 2.91302,-3.46653 0.97844,-6.56156 1.96956,-13.12312 2.93529,-19.6847 0.0826,-0.57932 0.0131,-1.18385 0.0131,-1.77891 l 0.054,0"
       inkscape:connector-curvature="0" /><path
       id="path6439"
       style="fill:#f9a825;fill-opacity:1;fill-rule:evenodd;stroke:none"
       d="m 221.74112,454.66746 c 5.94361,1.02959 7.69715,-0.47857 7.81787,-6.11131 0.0985,-4.62519 0.14928,-9.27561 0.71157,-13.85359 0.19379,-1.58057 1.67095,-3.16742 2.91304,-4.40795 0.83547,-0.83436 2.28722,-1.06106 3.4626,-1.56167 5.68948,-2.44956 6.30575,-2.23232 9.01549,3.19575 0.70205,1.40426 1.47717,2.77387 2.09978,4.20647 1.51531,3.47914 3.16084,6.92049 4.38386,10.5004 1.8266,5.32732 3.21165,10.79949 5.02237,16.13625 1.19445,3.52637 1.0642,6.70326 -1.25797,9.68808 -1.9918,2.55662 -2.20782,2.4905 -4.23455,-0.0282 -2.21099,-2.76128 -5.14624,-3.75936 -8.74863,-3.72474 -1.70271,0.0164 -3.4912,-1.08624 -5.11132,-1.93005 -2.12521,-1.10828 -3.99312,-2.80849 -6.21362,-3.59879 -1.9791,-0.70527 -4.38386,-0.1952 -6.40741,-0.83435 -1.32787,-0.42191 -2.77327,-1.7317 -3.32283,-3.00057 -0.57182,-1.31607 -0.13023,-3.06352 -0.13023,-4.67559 z m -1.26433,-45.52162 c 0.23826,-3.51062 0.39392,-7.03067 0.73064,-10.535 0.50827,-5.25492 1.12773,-10.50039 1.73131,-15.74586 0.75923,-6.59621 1.5661,-13.18924 2.31898,-19.78543 0.64807,-5.73666 1.10867,-11.49849 1.92192,-17.2131 0.83546,-5.86888 1.79484,-11.73776 3.11635,-17.51533 0.49556,-2.15361 2.15697,-4.04273 3.50389,-6.44821 -4.32031,0.26761 -8.61838,0.0691 -12.71315,0.86898 -8.37379,1.64671 -16.62369,3.8979 -24.96252,5.75239 -2.43337,0.53842 -2.49372,1.76004 -2.17288,3.82234 1.05468,6.75678 2.31582,13.52613 2.70654,20.33329 0.72429,12.70435 0.91491,25.43707 1.28021,38.16034 0.1715,5.96962 -0.94346,11.60552 -4.18052,16.81005 -2.12204,3.40987 -1.68049,5.82795 1.40727,8.66479 1.70588,1.56796 2.24912,3.20836 2.23006,5.44382 -0.10166,10.50669 0.0286,21.01337 -0.0859,31.51692 -0.0445,3.90102 -0.54321,7.80523 -0.8323,11.64015 -0.29226,0.1386 -0.54002,0.34004 -0.63534,0.28651 -4.28536,-2.50624 -8.21495,-1.40425 -12.31924,0.73991 -3.27837,1.70651 -6.81402,3.01946 -10.37194,4.06162 -5.3432,1.56483 -9.12665,5.33992 -13.35801,8.50737 -0.86725,0.6486 -1.71542,1.32237 -2.56045,2.00246 -2.49687,2.00562 -4.10747,4.17183 -3.17033,7.77374 0.9816,3.75623 1.10549,7.72969 1.99497,11.51737 0.40344,1.71597 1.38505,3.66807 2.73832,4.73227 4.52998,3.58305 7.78292,8.76238 13.6884,10.70189 1.21031,0.39987 1.98227,2.04655 3.01469,3.06353 2.90668,2.86834 5.38134,6.61824 8.86618,8.38772 7.23017,3.6649 14.95272,6.40098 22.56728,9.2693 5.3718,2.02767 10.2258,-0.79657 15.17194,-2.25749 6.16279,-1.82301 11.85226,-4.32924 15.61031,-9.98088 0.72745,-1.09885 2.44289,-1.61521 3.77392,-2.25121 5.4671,-2.63219 7.50019,-8.12009 10.7722,-12.58472 1.62647,-2.21972 3.71672,-4.18442 4.92386,-6.59304 2.36349,-4.70079 4.25045,-9.62825 6.65204,-15.19173 1.84567,-0.38726 4.79363,-1.35701 7.78607,-1.54594 4.46647,-0.28022 8.0879,-2.12526 11.55052,-4.65982 3.73262,-2.72664 7.5923,-5.27068 11.30269,-8.01619 2.4556,-1.81357 3.17353,-5.33048 0.93078,-7.1409 -4.34572,-3.51063 -5.04777,-8.38142 -6.19458,-13.19555 -0.49555,-2.08747 -0.74016,-4.28516 -1.57246,-6.23096 -1.24845,-2.91555 -0.0667,-4.98729 1.88378,-6.83233 4.91119,-4.66298 5.45757,-10.43427 4.52045,-16.62746 -0.53685,-3.561 -0.38756,-6.78825 1.76942,-10.09106 5.04462,-7.70449 10.0511,-15.48453 14.26339,-23.64557 3.16082,-6.12076 5.24473,-12.82084 7.37313,-19.40131 0.7624,-2.3488 0.43205,-5.11008 0.27319,-7.66355 -0.22553,-3.51375 -0.59085,-7.03699 -1.26751,-10.48778 -0.22872,-1.16497 -1.41045,-2.33938 -2.4524,-3.13281 -11.92853,-9.05521 -24.93393,-16.10794 -39.2831,-20.68907 -1.81706,-0.57932 -2.68749,-0.50692 -3.5992,1.35073 -1.76306,3.60508 -4.063,6.95828 -5.76889,10.58854 -0.61946,1.32239 -0.6258,3.29023 -0.13024,4.68818 1.57247,4.42055 3.63416,8.66479 5.2225,13.07589 0.41296,1.14607 0.22872,2.95334 -0.44791,3.95456 -3.43401,5.11325 -7.56054,9.81718 -10.61019,15.13192 -3.5039,6.09557 -5.98172,12.75788 -9.2442,19.00145 -0.93712,1.79151 -2.78915,3.69324 -4.638,4.32609 -4.71103,1.61205 -9.71751,2.34565 -14.4794,3.82547 -2.08709,0.64861 -3.90097,2.21973 -5.80067,3.43506 -1.33739,0.85641 -2.60805,1.81355 -3.91685,2.72663 l -0.82913,-0.69898"
       inkscape:connector-curvature="0" /><path
       id="path6441"
       style="fill:#f9a825;fill-opacity:1;fill-rule:evenodd;stroke:none"
       d="m 294.80208,591.1001 c 2.42383,5.78387 4.85718,11.59608 7.28736,17.39255 4.8286,-0.92569 7.52243,-3.50749 8.38013,-8.33735 0.73701,-4.22533 -1.68364,-7.14719 -4.74916,-9.5149 -2.87491,-2.22285 -7.20794,-1.9458 -10.91833,0.4597"
       inkscape:connector-curvature="0" /><path
       id="path6443"
       style="fill:#f9a825;fill-opacity:1;fill-rule:evenodd;stroke:none"
       d="m 260.73831,611.29799 c -1.30562,0.62028 -3.68179,1.18701 -3.71991,1.87339 -0.1143,2.12841 -0.0253,5.20453 1.30563,6.19003 1.15948,0.87531 4.26631,-0.19206 6.15326,-1.13347 0.92441,-0.4597 1.54069,-2.64479 1.3628,-3.91994 -0.30178,-2.15676 -2.12203,-2.87147 -4.27267,-2.53771 l -0.59722,0.007 -0.23189,-0.47858"
       inkscape:connector-curvature="0" /><path
       id="path6445"
       style="fill:#f9a825;fill-opacity:1;fill-rule:evenodd;stroke:none"
       d="m 224.96229,601.16284 c 0,1.1618 0,2.03395 0,2.90924 0,5.3305 0,10.66097 0,16.07331 4.18689,0.98549 7.63997,0.16373 10.19086,-3.16113 2.55088,-3.31856 3.04964,-6.94569 0.95301,-10.71134 -2.34123,-4.21904 -6.13738,-5.50051 -11.14387,-5.11008"
       inkscape:connector-curvature="0" /><path
       id="path6447"
       style="fill:#f9a825;fill-opacity:1;fill-rule:evenodd;stroke:none"
       d="m 257.67396,492.41219 c -3.0919,-0.54603 -5.3202,-0.94274 -7.97808,-1.4141 0.67118,3.97169 1.24392,7.38801 1.93299,11.50908 2.10748,-3.51898 3.88836,-6.4873 6.04509,-10.09498"
       inkscape:connector-curvature="0" /><path
       id="path6449"
       style="fill:#f9a825;fill-opacity:1;fill-rule:evenodd;stroke:none"
       d="m 239.28604,278.6388 c -1.51845,0 -2.61124,-0.0131 -3.69768,0.008 -0.48604,0.007 -0.96888,0.0755 -1.61059,0.12908 0.74335,2.20396 1.44858,4.28516 2.38887,7.04644 1.08329,-2.66054 1.91558,-4.71023 2.9194,-7.18498"
       inkscape:connector-curvature="0" /><path
       id="path6451"
       style="fill:#f9a825;fill-opacity:1;fill-rule:evenodd;stroke:none"
       d="m 213.8089,284.58639 c -1.44859,0.11643 -4.21231,-0.34634 -3.6278,2.0497 0.48604,1.97412 -1.5534,5.90666 2.62078,5.95387 4.18372,0.0473 5.98173,-1.64981 5.93409,-4.55593 -0.0445,-2.47474 -1.36915,-3.4508 -4.92707,-3.44764"
       inkscape:connector-curvature="0" /><path
       id="path6453"
       style="fill:#ffffff;fill-opacity:1;fill-rule:evenodd;stroke:none"
       d="m 221.74112,454.66746 c 0,1.61208 -0.44157,3.35952 0.13023,4.6756 0.54958,1.26887 1.99498,2.57865 3.32285,3.00055 2.02355,0.63915 4.42831,0.12908 6.4074,0.83437 2.22051,0.7903 4.0884,2.4905 6.21363,3.59879 1.6201,0.84381 3.40861,1.9458 5.1113,1.93005 3.60239,-0.0346 6.53766,0.96346 8.74865,3.72474 2.02673,2.51883 2.24275,2.58495 4.23455,0.0282 2.32215,-2.98483 2.4524,-6.1617 1.25795,-9.68807 -1.81072,-5.33678 -3.19575,-10.80893 -5.02235,-16.13627 -1.22304,-3.57991 -2.86857,-7.02126 -4.38386,-10.5004 -0.62261,-1.43258 -1.39774,-2.8022 -2.09979,-4.20645 -2.70973,-5.42807 -3.326,-5.64531 -9.01548,-3.19575 -1.17538,0.50061 -2.62713,0.7273 -3.4626,1.56167 -1.24209,1.24053 -2.71927,2.82738 -2.91304,4.40795 -0.56227,4.57798 -0.6131,9.22838 -0.71159,13.85358 -0.1207,5.63275 -1.87424,7.1409 -7.81787,6.11132"
       inkscape:connector-curvature="0" /><path
       id="path6449-3"
       style="fill:#f9a825;fill-opacity:1;fill-rule:evenodd;stroke:none"
       d="m 203.95737,605.36249 c -1.50068,-0.23169 -2.57866,-0.41142 -3.65563,-0.5561 -0.48137,-0.0677 -0.96907,-0.0733 -1.61144,-0.11825 0.39837,2.29158 0.67243,4.98274 1.18038,7.85516 1.47655,-2.46409 2.9279,-4.67883 4.29756,-6.97142"
       inkscape:connector-curvature="0"
       sodipodi:nodetypes="ccccc" /></g></g><flowRoot
   xml:space="preserve"
   id="flowRoot19946"
   style="font-size:14px;font-style:normal;font-weight:normal;line-height:125%;letter-spacing:0px;word-spacing:0px;fill:#000000;fill-opacity:1;stroke:none;font-family:Sans"><flowRegion
     id="flowRegion19948"><rect
       id="rect19950"
       width="1212.718"
       height="1486.8459"
       x="-1591.1337"
       y="-88.808144" /></flowRegion><flowPara
     id="flowPara19952" /></flowRoot>


</g></svg>